<svg width="27" height="27" viewBox="0 0 27 27" fill="none" xmlns="http://www.w3.org/2000/svg">
<path id="Vector" d="M27 24.6635L18.9467 16.6089C20.2446 14.8254 20.9427 12.676 20.9406 10.4703C20.9406 4.69709 16.2435 0 10.4703 0C4.69709 0 0 4.69709 0 10.4703C0 16.2435 4.69709 20.9406 10.4703 20.9406C12.676 20.9427 14.8254 20.2446 16.6089 18.9467L24.6635 27L27 24.6635ZM10.4703 17.6337C9.05331 17.6339 7.66812 17.2138 6.48989 16.4266C5.31166 15.6395 4.39332 14.5206 3.85101 13.2115C3.3087 11.9024 3.16677 10.4619 3.44318 9.07215C3.71958 7.6824 4.40191 6.40582 5.40387 5.40387C6.40582 4.40191 7.6824 3.71958 9.07215 3.44318C10.4619 3.16677 11.9024 3.3087 13.2115 3.85101C14.5206 4.39332 15.6395 5.31166 16.4266 6.48989C17.2138 7.66812 17.6339 9.05331 17.6337 10.4703C17.6315 12.3695 16.8761 14.1902 15.5331 15.5331C14.1902 16.8761 12.3695 17.6315 10.4703 17.6337Z" fill="white"/>
</svg>
