<svg width="41" height="28" viewBox="0 0 41 28" fill="none" xmlns="http://www.w3.org/2000/svg">
<path id="Vector" fill-rule="evenodd" clip-rule="evenodd" d="M8.26735 21.6494C7.8183 21.5783 7.34095 21.5385 6.83333 21.5385C3.09452 21.5385 1.00645 23.7149 0.205975 24.7994C0.0761414 24.9857 0.00683703 25.214 0.00683703 25.4499C0.00683703 25.4563 0.00683012 25.4628 0.00585393 25.4682C-3.21748e-06 25.8666 0 26.3943 0 26.9231C0 27.5175 0.437333 28 0.97619 28H7.97743C7.86712 27.6575 7.80952 27.2935 7.80952 26.9231C7.80952 25.6975 7.80952 24.2372 7.81343 23.3746C7.81343 22.7608 7.97254 22.1631 8.26735 21.6494ZM30.2619 28H10.7381C10.4794 28 10.2305 27.8869 10.0479 27.6845C9.8644 27.4831 9.7619 27.2085 9.7619 26.9231C9.7619 25.7008 9.7619 24.2469 9.76581 23.3811C9.76581 23.3789 9.76581 23.3768 9.76581 23.3746C9.76581 23.1269 9.84391 22.8878 9.98546 22.6962C11.1969 21.1702 14.8576 17.2308 20.5 17.2308C26.8862 17.2308 30.093 21.1626 31.0741 22.6455C31.1825 22.8275 31.2381 23.0332 31.2381 23.2432V26.9231C31.2381 27.2085 31.1356 27.4831 30.9521 27.6845C30.7695 27.8869 30.5206 28 30.2619 28ZM33.0226 28H40.0238C40.5627 28 41 27.5175 41 26.9231V25.4488C41 25.2108 40.9287 24.9803 40.7979 24.7919C39.9935 23.7149 37.9045 21.5385 34.1667 21.5385C33.6854 21.5385 33.2315 21.574 32.8039 21.6386C33.0567 22.1265 33.1905 22.68 33.1905 23.2454V26.9231C33.1905 27.2935 33.1329 27.6575 33.0226 28ZM6.83333 8.61539C4.13905 8.61539 1.95238 11.0277 1.95238 14C1.95238 16.9723 4.13905 19.3846 6.83333 19.3846C9.52762 19.3846 11.7143 16.9723 11.7143 14C11.7143 11.0277 9.52762 8.61539 6.83333 8.61539ZM34.1667 8.61539C31.4724 8.61539 29.2857 11.0277 29.2857 14C29.2857 16.9723 31.4724 19.3846 34.1667 19.3846C36.861 19.3846 39.0476 16.9723 39.0476 14C39.0476 11.0277 36.861 8.61539 34.1667 8.61539ZM20.5 0C16.729 0 13.6667 3.37831 13.6667 7.53846C13.6667 11.6986 16.729 15.0769 20.5 15.0769C24.271 15.0769 27.3333 11.6986 27.3333 7.53846C27.3333 3.37831 24.271 0 20.5 0Z" fill="white"/>
</svg>
