<svg width="28" height="30" viewBox="0 0 28 30" fill="none" xmlns="http://www.w3.org/2000/svg">
<path id="Vector" d="M9.4746 19.8486L11.0339 14.8048L20.029 5.16723L23.1772 8.54039L14.1822 18.178L9.4746 19.8486ZM27.3475 0.699059C27.5544 0.920471 27.7185 1.18339 27.8304 1.47278C27.9424 1.76218 28 2.07237 28 2.38564C28 2.69891 27.9424 3.0091 27.8304 3.2985C27.7185 3.58789 27.5544 3.85081 27.3475 4.07222L25.0305 6.55475L21.8822 3.18159L24.1993 0.699059C24.4059 0.477444 24.6513 0.301637 24.9214 0.181688C25.1915 0.061739 25.481 0 25.7734 0C26.0658 0 26.3553 0.061739 26.6254 0.181688C26.8955 0.301637 27.1409 0.477444 27.3475 0.699059ZM1.75002 5.62474H14.1559L12.4059 7.49976H1.75002V28.125H21.0002V16.708L22.7502 14.833V28.125C22.7502 28.6223 22.5659 29.0992 22.2377 29.4508C21.9095 29.8025 21.4644 30 21.0002 30H1.75002C1.28588 30 0.840761 29.8025 0.512569 29.4508C0.184378 29.0992 0 28.6223 0 28.125V7.49976C0 7.00247 0.184378 6.52555 0.512569 6.17392C0.840761 5.82228 1.28588 5.62474 1.75002 5.62474Z" fill="white"/>
</svg>
