<svg width="116" height="54" viewBox="0 0 116 54" fill="none" xmlns="http://www.w3.org/2000/svg">
<g id="Ed_logo_rectangle 1 (Traced)">
<path fill-rule="evenodd" clip-rule="evenodd" d="M63.6245 2.47478C64.5732 4.20666 64.3344 32.312 63.3627 33.2609C63.024 33.591 54.3723 34.0236 44.1367 34.2222L25.5252 34.5833V36.3889V38.1944L44.1367 38.5556C54.3723 38.7542 63.024 39.1875 63.3627 39.5183C63.7006 39.8498 63.9772 42.7055 63.9772 45.8644C63.9772 50.184 63.7021 51.778 62.868 52.2929C62.2269 52.6887 51.2577 52.9827 36.859 52.9892L11.9584 53L9.80653 51.2313C6.60392 48.5988 3.05673 41.4972 1.77376 35.1474C-0.565891 23.5673 2.5465 9.82048 9.13584 2.625L10.6244 1H36.7199C62.2402 1 62.834 1.0325 63.6245 2.47478ZM93.5556 13.1586C111.923 23.5297 115 25.5072 115 26.9415C115 28.3773 111.895 30.362 93.1948 40.8761C76.8313 50.0771 71.1108 52.9653 70.2715 52.4482C69.3161 51.8596 69.1253 48.2001 68.9582 27.2874C68.851 13.8274 68.9242 2.40689 69.1202 1.90784C69.3161 1.40806 70.0696 1.01083 70.7943 1.02455C71.5182 1.03828 81.7612 6.49829 93.5556 13.1586ZM25.4232 16.5278C25.1888 17.1236 25.1888 18.0986 25.4232 18.6944C26.0554 20.305 48.453 20.305 49.0859 18.6944C49.3196 18.0986 49.3196 17.1236 49.0859 16.5278C48.453 14.9172 26.0554 14.9172 25.4232 16.5278ZM83.5729 27C83.5729 29.4649 84.9735 29.8622 86.9293 27.9519C88.0955 26.813 88.0895 26.6764 86.8413 25.7852C84.6681 24.2332 83.5729 24.6405 83.5729 27Z" fill="#6100FF"/>
<path d="M63.7633 2.39871L63.7633 2.39868C63.6632 2.21607 63.5583 2.0404 63.399 1.88424C63.2381 1.72651 63.0297 1.59614 62.7301 1.4871C62.1398 1.27224 61.1721 1.13258 59.4545 1.03844C56.0117 0.849724 49.4771 0.841667 36.7199 0.841667H10.6244H10.5547L10.5076 0.893051L9.01908 2.51805L9.01907 2.51807C5.70065 6.14174 3.26545 11.4051 1.952 17.207C0.63825 23.0103 0.443892 29.3647 1.61857 35.1787C2.2631 38.3687 3.4756 41.7448 4.92863 44.6541C6.37978 47.5596 8.07924 50.0164 9.70599 51.3536L11.8578 53.1223L11.9017 53.1584L11.9584 53.1583L36.859 53.1475C44.0593 53.1442 50.4027 53.0691 55.0268 52.9453C57.3387 52.8834 59.222 52.8093 60.5683 52.7258C61.2411 52.6841 61.7818 52.6399 62.1755 52.5935C62.3721 52.5703 62.5346 52.5462 62.6596 52.5211C62.7764 52.4977 62.8838 52.4693 62.9512 52.4277C63.4294 52.1324 63.7168 51.5446 63.8914 50.5324C64.067 49.5149 64.1355 48.0244 64.1355 45.8644C64.1355 44.2809 64.0662 42.772 63.9543 41.6158C63.8983 41.0381 63.8315 40.5453 63.7565 40.1741C63.7191 39.9888 63.6789 39.8302 63.6359 39.7051C63.5952 39.5869 63.5443 39.4746 63.4736 39.4053L63.4733 39.405C63.4393 39.3718 63.3961 39.352 63.365 39.3397C63.3297 39.3258 63.288 39.3132 63.2423 39.3017C63.1506 39.2784 63.0295 39.2558 62.883 39.2336C62.5891 39.1889 62.1796 39.1437 61.6691 39.0985C60.6475 39.008 59.2121 38.9165 57.469 38.8292C53.9823 38.6546 49.2588 38.4966 44.1398 38.3973L25.6836 38.0392V36.3889V34.7386L44.1398 34.3805C49.2588 34.2812 53.9823 34.1233 57.469 33.949C59.2121 33.8619 60.6475 33.7705 61.6691 33.6802C62.1795 33.635 62.5891 33.59 62.8829 33.5454C63.0294 33.5232 63.1505 33.5006 63.2422 33.4775C63.2879 33.4659 63.3296 33.4534 63.3649 33.4395C63.396 33.4272 63.4392 33.4075 63.4732 33.3743L63.4733 33.3742C63.5313 33.3176 63.5707 33.2315 63.6008 33.1473C63.633 33.0569 63.6629 32.9434 63.6911 32.8107C63.7475 32.545 63.8001 32.1878 63.8492 31.7545C63.9474 30.887 64.0329 29.7008 64.1051 28.302C64.2494 25.5035 64.3408 21.8448 64.3721 18.1628C64.4034 14.4807 64.3746 10.7732 64.2787 7.87706C64.2308 6.42927 64.1659 5.18235 64.0832 4.24206C64.0419 3.77213 63.9958 3.37644 63.9447 3.06951C63.895 2.77036 63.8372 2.53361 63.7633 2.39871ZM25.5705 16.5857L25.5706 16.5856C25.5761 16.5715 25.5936 16.5441 25.6418 16.5067C25.6892 16.47 25.7577 16.4304 25.8503 16.3895C26.0355 16.3075 26.2973 16.2284 26.6301 16.1538C27.2944 16.005 28.2158 15.88 29.3126 15.7795C31.5048 15.5788 34.3784 15.4782 37.2543 15.4782C40.1302 15.4782 43.0038 15.5788 45.1961 15.7795C46.293 15.88 47.2144 16.005 47.8788 16.1538C48.2116 16.2284 48.4735 16.3075 48.6587 16.3895C48.7513 16.4304 48.8198 16.47 48.8673 16.5067C48.9156 16.5441 48.933 16.5716 48.9386 16.5857C49.046 16.8597 49.1029 17.2313 49.1029 17.6111C49.1029 17.9909 49.046 18.3625 48.9386 18.6365C48.933 18.6506 48.9156 18.6781 48.8673 18.7155C48.8198 18.7522 48.7513 18.7918 48.6587 18.8328C48.4735 18.9148 48.2116 18.9939 47.8788 19.0684C47.2144 19.2172 46.293 19.3423 45.1961 19.4427C43.0038 19.6434 40.1302 19.744 37.2543 19.744C34.3784 19.744 31.5048 19.6434 29.3126 19.4427C28.2158 19.3423 27.2944 19.2172 26.6301 19.0684C26.2973 18.9939 26.0355 18.9148 25.8503 18.8328C25.7577 18.7918 25.6892 18.7522 25.6418 18.7155C25.5936 18.6781 25.5761 18.6507 25.5706 18.6366L25.5705 18.6365C25.4628 18.3625 25.4057 17.9909 25.4057 17.6111C25.4057 17.2313 25.4628 16.8597 25.5705 16.5857ZM25.4232 16.5278C25.1888 17.1236 25.1888 18.0986 25.4232 18.6944L49.0859 16.5278C48.453 14.9172 26.0554 14.9172 25.4232 16.5278ZM86.7493 25.9141L86.8413 25.7852L86.7493 25.9141C87.0628 26.1379 87.2869 26.3066 87.4344 26.4522C87.5823 26.5983 87.6291 26.6983 87.6325 26.7821C87.6361 26.8689 87.5952 26.9829 87.4576 27.1616C87.3216 27.3382 87.1113 27.5528 86.8187 27.8386C86.3373 28.3088 85.8972 28.6297 85.5119 28.8127C85.1257 28.996 84.8083 29.0345 84.5609 28.9643C84.3184 28.8956 84.1138 28.7139 83.9663 28.3914C83.8174 28.0656 83.7313 27.6037 83.7313 27C83.7313 26.4198 83.799 25.9743 83.9252 25.6547C84.0502 25.3384 84.2277 25.1558 84.4473 25.0742C84.672 24.9907 84.9716 25.0012 85.3614 25.1379C85.7501 25.2742 86.2124 25.5306 86.7493 25.9141ZM115.158 26.9415C115.158 26.5174 114.927 26.0858 114.342 25.5267L69.1202 1.90784L68.9728 1.84997C68.9728 1.84999 68.9727 1.85002 68.9727 1.85004C68.9599 1.8828 68.9518 1.92374 68.9458 1.96126C68.9392 2.00233 68.9331 2.05289 68.9273 2.11169C68.9157 2.2295 68.9047 2.38705 68.8944 2.58117C68.8738 2.96977 68.8552 3.51118 68.8388 4.18729C68.806 5.53984 68.7819 7.4359 68.7672 9.73626C68.7378 14.3372 68.7463 20.5581 68.7999 27.2887C68.8834 37.7438 68.9729 43.8908 69.1611 47.4976C69.2552 49.2997 69.3742 50.4761 69.5317 51.2413C69.6869 51.996 69.8878 52.3978 70.1884 52.583C70.2713 52.6341 70.3716 52.6568 70.4789 52.6627C70.587 52.6685 70.7123 52.6577 70.8538 52.6328C71.1366 52.5828 71.5033 52.4726 71.9619 52.3004C72.8802 51.9554 74.1916 51.3521 75.9829 50.4478C79.5669 48.6385 85.0908 45.6145 93.2724 41.0141C102.621 35.7578 108.077 32.6307 111.195 30.6378C112.753 29.6422 113.737 28.9242 114.332 28.3609C114.925 27.799 115.158 27.3665 115.158 26.9415Z" stroke="black" stroke-opacity="0.18" stroke-width="0.316667"/>
</g>
</svg>
