<svg width="126" height="63" viewBox="0 0 126 63" fill="none" xmlns="http://www.w3.org/2000/svg">
<g id="Ed_logo_rectangle 1 (Traced)">
<path fill-rule="evenodd" clip-rule="evenodd" d="M69.1672 2.72788C70.2075 4.757 69.9456 37.6858 68.8802 38.7977C68.5088 39.1844 59.0223 39.6912 47.799 39.9239L27.3917 40.347V42.4624V44.5778L47.799 45.0009C59.0223 45.2336 68.5088 45.7413 68.8802 46.1289C69.2507 46.5173 69.5539 49.863 69.5539 53.5642C69.5539 58.6251 69.2523 60.4926 68.3377 61.096C67.6348 61.5597 55.6072 61.9041 39.819 61.9117L12.5157 61.9244L10.1563 59.8521C6.64465 56.7678 2.75518 48.4474 1.34842 41.0079C-1.21699 27.4404 2.19572 11.3343 9.42087 2.90389L11.053 1H39.6666C67.6493 1 68.3004 1.03808 69.1672 2.72788ZM101.986 15.2453C122.126 27.3963 125.5 29.7132 125.5 31.3937C125.5 33.0758 122.095 35.4011 101.591 47.7197C83.6483 58.4999 77.3759 61.8837 76.4556 61.2779C75.408 60.5883 75.1988 56.3006 75.0156 31.799C74.898 16.0289 74.9783 2.64834 75.1931 2.06364C75.408 1.47809 76.2342 1.01269 77.0288 1.02877C77.8226 1.04484 89.054 7.44192 101.986 15.2453ZM27.2798 19.1927C27.0228 19.8908 27.0228 21.0331 27.2798 21.7312C27.9731 23.6182 52.5318 23.6182 53.2258 21.7312C53.482 21.0331 53.482 19.8908 53.2258 19.1927C52.5318 17.3057 27.9731 17.3057 27.2798 19.1927ZM91.0405 31.4622C91.0405 34.3502 92.5762 34.8156 94.7208 32.5774C95.9994 31.243 95.9929 31.0831 94.6243 30.0389C92.2413 28.2205 91.0405 28.6977 91.0405 31.4622Z" fill="white"/>
<path d="M69.3569 2.63064L69.3568 2.6306C69.2471 2.41665 69.1306 2.2077 68.9526 2.02128C68.7721 1.83218 68.5383 1.67622 68.2044 1.54636C67.5493 1.29155 66.4809 1.12776 64.5979 1.01747C60.8209 0.796257 53.6536 0.786842 39.6666 0.786842H11.053H10.955L10.8912 0.861266L9.25904 2.76515L9.25902 2.76518C5.61628 7.01557 2.94512 13.1863 1.50466 19.9853C0.0637446 26.7864 -0.149459 34.2334 1.13898 41.0475C1.84598 44.7864 3.17597 48.7433 4.76992 52.1534C6.36129 55.558 8.22664 58.441 10.0156 60.0122L12.3751 62.0845L12.4355 62.1376L12.5158 62.1375L39.8191 62.1248C47.7144 62.121 54.6705 62.033 59.7414 61.8879C62.2766 61.8154 64.3424 61.7285 65.8194 61.6307C66.5575 61.5818 67.1515 61.5299 67.5847 61.4753C67.8009 61.4481 67.9807 61.4197 68.1197 61.3899C68.2476 61.3625 68.3734 61.3278 68.4551 61.2739C68.9926 60.9193 69.308 60.2197 69.4992 59.0357C69.692 57.8422 69.7671 56.0949 69.7671 53.5642C69.7671 51.7085 69.6911 49.9403 69.5683 48.585C69.5069 47.9079 69.4335 47.3301 69.3512 46.8944C69.3101 46.677 69.2659 46.4904 69.2184 46.3427C69.174 46.2049 69.117 46.0684 69.0344 45.9817L69.0341 45.9814C68.9915 45.937 68.9378 45.9111 68.9019 45.8959C68.8604 45.8784 68.8125 45.863 68.7612 45.8492C68.6583 45.8213 68.5236 45.7945 68.3622 45.7683C68.0384 45.7157 67.588 45.6627 67.0279 45.6097C65.9067 45.5035 64.332 45.3963 62.4205 45.294C58.5966 45.0894 53.4168 44.9042 47.8035 44.7878L27.6049 44.3691V42.4624V40.5558L47.8035 40.137C53.4167 40.0206 58.5966 39.8357 62.4204 39.6314C64.332 39.5293 65.9067 39.4222 67.0279 39.3163C67.588 39.2633 68.0383 39.2104 68.3621 39.1579C68.5235 39.1318 68.6582 39.1051 68.7611 39.0773C68.8124 39.0634 68.8603 39.0481 68.9017 39.0307C68.9377 39.0155 68.9913 38.9897 69.0339 38.9453L69.0341 38.9451C69.1026 38.8736 69.147 38.7679 69.1799 38.6696C69.2156 38.5627 69.2485 38.4289 69.2795 38.2732C69.3415 37.9612 69.3992 37.5421 69.453 37.0342C69.5608 36.0174 69.6545 34.6273 69.7337 32.9883C69.892 29.7093 69.9921 25.4225 70.0265 21.1084C70.0608 16.7943 70.0293 12.4503 69.9241 9.05686C69.8715 7.36048 69.8004 5.89927 69.7097 4.79724C69.6643 4.24649 69.6138 3.78247 69.5577 3.42233C69.5032 3.07236 69.4397 2.79211 69.3569 2.63064ZM77.0331 0.815653L77.0288 1.02877C76.2342 1.01269 75.408 1.47809 75.1931 2.06364L74.9931 1.99012C74.9931 1.99015 74.993 1.99018 74.993 1.99021C74.9782 2.03053 74.9692 2.08002 74.9626 2.12397C74.9553 2.1725 74.9486 2.23206 74.9422 2.3011C74.9294 2.43944 74.9174 2.62427 74.9061 2.85179C74.8834 3.30729 74.8631 3.94177 74.8451 4.73396C74.8092 6.31876 74.7827 8.54032 74.7665 11.2355C74.7343 16.6262 74.7436 23.9148 74.8024 31.8005C74.894 44.0499 74.9921 51.2522 75.1986 55.4783C75.3017 57.5898 75.4322 58.969 75.6051 59.8667C75.7748 60.7483 75.9955 61.2302 76.3384 61.4559C76.5291 61.5815 76.8037 61.5774 77.1034 61.5209C77.4181 61.4615 77.8235 61.331 78.3274 61.1288C79.3369 60.7236 80.7766 60.0158 82.7411 58.9562C86.6719 56.8358 92.7296 53.2923 101.701 47.9024C111.951 41.7442 117.934 38.0798 121.355 35.7441C123.064 34.5773 124.144 33.7343 124.799 33.0718C125.454 32.4099 125.713 31.8977 125.713 31.3937C125.713 30.8908 125.456 30.3796 124.81 29.721C124.164 29.062 123.098 28.2254 121.416 27.0702C118.049 24.7577 112.165 21.1372 102.097 15.0628C95.6292 11.1604 89.5867 7.60938 85.0611 5.03158C82.7986 3.74281 80.9139 2.69658 79.5445 1.97117C78.8601 1.60863 78.3022 1.32509 77.8893 1.13124C77.6831 1.03444 77.5102 0.958673 77.3744 0.906404C77.3065 0.8803 77.2453 0.859016 77.192 0.843834C77.1423 0.829657 77.086 0.816724 77.0331 0.815653ZM27.4798 19.2663L27.4799 19.2662C27.4918 19.2339 27.5563 19.1543 27.769 19.0537C27.9679 18.9596 28.2514 18.8678 28.6149 18.7808C29.34 18.6073 30.3477 18.461 31.5495 18.3434C33.951 18.1085 37.1001 17.9906 40.2525 17.9906C43.4049 17.9906 46.5541 18.1085 48.9557 18.3434C50.1576 18.461 51.1653 18.6073 51.8905 18.7808C52.254 18.8678 52.5376 18.9596 52.7365 19.0537C52.9489 19.1541 53.0137 19.2337 53.0257 19.2661C53.1426 19.5845 53.2048 20.0179 53.2048 20.462C53.2048 20.906 53.1426 21.3394 53.0257 21.6578C53.0137 21.6902 52.9489 21.7698 52.7365 21.8702C52.5376 21.9643 52.254 22.0561 51.8905 22.1431C51.1653 22.3166 50.1576 22.4629 48.9557 22.5805C46.5541 22.8154 43.4049 22.9333 40.2525 22.9333C37.1001 22.9333 33.951 22.8154 31.5495 22.5805C30.3477 22.4629 29.34 22.3166 28.6149 22.1431C28.2514 22.0561 27.9679 21.9643 27.769 21.8702C27.5563 21.7696 27.4918 21.69 27.4799 21.6577L27.4798 21.6576C27.3627 21.3393 27.3002 20.9059 27.3002 20.462C27.3002 20.018 27.3627 19.5846 27.4798 19.2663ZM94.495 30.2084L94.6243 30.0389L94.495 30.2084C94.8389 30.4708 95.0823 30.6667 95.2418 30.835C95.4009 31.0029 95.4487 31.115 95.4522 31.2075C95.4559 31.3041 95.4137 31.4333 95.2647 31.6401C95.1169 31.8451 94.8879 32.095 94.5669 32.43C94.0404 32.9794 93.5613 33.3521 93.1445 33.5634C92.7267 33.7753 92.3926 33.8152 92.1382 33.7381C91.8893 33.6627 91.6705 33.461 91.5099 33.0857C91.348 32.7073 91.2536 32.1686 91.2536 31.4622C91.2536 30.7831 91.3279 30.2633 91.4653 29.8918C91.6016 29.5231 91.792 29.3196 92.0174 29.2301C92.2481 29.1385 92.5626 29.147 92.9842 29.305C93.4045 29.4626 93.9076 29.7602 94.495 30.2084Z" stroke="black" stroke-opacity="0.18" stroke-width="0.426316"/>
</g>
</svg>
