<svg width="20" height="20" viewBox="0 0 20 20" fill="none" xmlns="http://www.w3.org/2000/svg">
<g id="Edit" clip-path="url(#clip0_2534_588)">
<path id="Vector" d="M2.91667 19.9998H15.4167C16.1914 19.9976 16.9336 19.6881 17.4805 19.1393C18.0273 18.5905 18.334 17.8471 18.3333 17.0723V10.7915C18.3333 10.5705 18.2455 10.3585 18.0893 10.2022C17.933 10.046 17.721 9.95817 17.5 9.95817C17.279 9.95817 17.067 10.046 16.9107 10.2022C16.7545 10.3585 16.6667 10.5705 16.6667 10.7915V17.0723C16.6678 17.4052 16.5368 17.7249 16.3024 17.9613C16.0681 18.1977 15.7495 18.3314 15.4167 18.3332H2.91667C2.58381 18.3314 2.26525 18.1977 2.0309 17.9613C1.79655 17.7249 1.66556 17.4052 1.66667 17.0723V4.594C1.66556 4.26115 1.79655 3.94145 2.0309 3.70506C2.26525 3.46868 2.58381 3.33493 2.91667 3.33317H9.16667C9.38768 3.33317 9.59964 3.24537 9.75592 3.08909C9.9122 2.93281 10 2.72085 10 2.49984C10 2.27882 9.9122 2.06686 9.75592 1.91058C9.59964 1.7543 9.38768 1.6665 9.16667 1.6665H2.91667C2.14192 1.66871 1.3997 1.9782 0.852882 2.52704C0.306068 3.07589 -0.000664243 3.81925 1.08009e-06 4.594V17.0723C-0.000664243 17.8471 0.306068 18.5905 0.852882 19.1393C1.3997 19.6881 2.14192 19.9976 2.91667 19.9998Z" fill="black"/>
<path id="Vector_2" d="M7.87917 8.78666L7.22168 11.7983C7.19191 11.9349 7.197 12.0768 7.23647 12.211C7.27593 12.3451 7.34851 12.4671 7.44751 12.5658C7.54787 12.6621 7.66996 12.7327 7.80342 12.7717C7.93688 12.8107 8.07778 12.817 8.21418 12.79L11.2192 12.1308C11.3752 12.0966 11.5181 12.0182 11.6308 11.905L19.2258 4.31C19.458 4.07785 19.6422 3.80223 19.7679 3.49889C19.8935 3.19555 19.9582 2.87042 19.9582 2.54208C19.9582 2.21374 19.8935 1.88862 19.7679 1.58528C19.6422 1.28193 19.458 1.00632 19.2258 0.774165C18.7498 0.319278 18.1168 0.0654297 17.4583 0.0654297C16.7999 0.0654297 16.1669 0.319278 15.6908 0.774165L8.10751 8.37666C7.99369 8.48864 7.91444 8.63095 7.87917 8.78666ZM16.8692 1.95333C17.0277 1.80145 17.2388 1.71666 17.4583 1.71666C17.6779 1.71666 17.889 1.80145 18.0475 1.95333C18.2017 2.11052 18.288 2.32191 18.288 2.54208C18.288 2.76225 18.2017 2.97364 18.0475 3.13083L17.4583 3.72L16.28 2.54166L16.8692 1.95333ZM9.45251 9.38167L15.0975 3.7225L16.2642 4.895L10.6167 10.5558L9.12084 10.8842L9.45251 9.38167Z" fill="black"/>
</g>
<defs>
<clipPath id="clip0_2534_588">
<rect width="20" height="20" fill="white"/>
</clipPath>
</defs>
</svg>
