<svg width="35" height="20" viewBox="0 0 35 20" fill="none" xmlns="http://www.w3.org/2000/svg">
<path id="Vector" fill-rule="evenodd" clip-rule="evenodd" d="M6.86206 15.4638C6.48934 15.4131 6.09313 15.3846 5.6718 15.3846C2.56851 15.3846 0.835373 16.9392 0.170963 17.7138C0.0631988 17.8469 0.00567486 18.01 0.00567486 18.1785C0.00567486 18.1831 0.00566913 18.1877 0.00485887 18.1915C-2.67057e-06 18.4762 0 18.8531 0 19.2308C0 19.6554 0.362995 20 0.810257 20H6.62142C6.52986 19.7554 6.48205 19.4954 6.48205 19.2308C6.48205 18.3554 6.48205 17.3123 6.48529 16.6962C6.48529 16.2577 6.61736 15.8308 6.86206 15.4638ZM25.118 20H8.91282C8.6981 20 8.49149 19.9192 8.33997 19.7746C8.18764 19.6308 8.10257 19.4346 8.10257 19.2308C8.10257 18.3577 8.10256 17.3192 8.10581 16.7008C8.10581 16.6992 8.10581 16.6977 8.10581 16.6962C8.10581 16.5192 8.17063 16.3485 8.28812 16.2115C9.29365 15.1215 12.3321 12.3077 17.0154 12.3077C22.3161 12.3077 24.9778 15.1162 25.7921 16.1754C25.882 16.3054 25.9282 16.4523 25.9282 16.6023V19.2308C25.9282 19.4346 25.8431 19.6308 25.6908 19.7746C25.5393 19.9192 25.3327 20 25.118 20ZM27.4094 20H33.2205C33.6678 20 34.0308 19.6554 34.0308 19.2308V18.1777C34.0308 18.0077 33.9716 17.8431 33.8631 17.7085C33.1954 16.9392 31.4615 15.3846 28.359 15.3846C27.9595 15.3846 27.5828 15.41 27.2279 15.4562C27.4377 15.8046 27.5487 16.2 27.5487 16.6038V19.2308C27.5487 19.4954 27.5009 19.7554 27.4094 20ZM5.6718 6.15385C3.43549 6.15385 1.62051 7.87692 1.62051 10C1.62051 12.1231 3.43549 13.8462 5.6718 13.8462C7.9081 13.8462 9.72308 12.1231 9.72308 10C9.72308 7.87692 7.9081 6.15385 5.6718 6.15385ZM28.359 6.15385C26.1227 6.15385 24.3077 7.87692 24.3077 10C24.3077 12.1231 26.1227 13.8462 28.359 13.8462C30.5953 13.8462 32.4103 12.1231 32.4103 10C32.4103 7.87692 30.5953 6.15385 28.359 6.15385ZM17.0154 0C13.8854 0 11.3436 2.41308 11.3436 5.38462C11.3436 8.35615 13.8854 10.7692 17.0154 10.7692C20.1454 10.7692 22.6872 8.35615 22.6872 5.38462C22.6872 2.41308 20.1454 0 17.0154 0Z" fill="black"/>
</svg>
