<?xml version="1.0" standalone="no"?>
<!DOCTYPE svg PUBLIC "-//W3C//DTD SVG 20010904//EN"
 "http://www.w3.org/TR/2001/REC-SVG-20010904/DTD/svg10.dtd">
<svg version="1.0" xmlns="http://www.w3.org/2000/svg"
 width="508.000000pt" height="750.000000pt" viewBox="0 0 508.000000 750.000000"
 preserveAspectRatio="xMidYMid meet">

<g transform="translate(0.000000,750.000000) scale(0.100000,-0.100000)"
fill="#000000" stroke="none">
<path d="M0 6819 c0 -33 8 -50 39 -88 21 -25 52 -68 70 -95 17 -27 47 -59 68
-70 82 -47 108 -135 53 -186 l-30 -28 35 -58 c51 -84 85 -181 110 -316 6 -29
23 -38 30 -15 2 6 15 55 30 107 59 215 186 383 315 420 55 16 178 11 265 -9
321 -78 820 -348 1066 -579 93 -87 139 -155 139 -204 0 -87 -106 -105 -355
-61 -76 14 -104 15 -187 4 -54 -7 -127 -21 -162 -32 -62 -20 -106 -43 -96 -51
3 -3 48 -19 100 -38 236 -82 413 -209 436 -313 5 -25 2 -34 -17 -50 -23 -19
-34 -19 -224 -11 -110 5 -306 9 -435 9 -210 -1 -245 -3 -333 -24 -114 -27
-174 -24 -253 13 -69 33 -118 74 -175 151 -87 117 -113 186 -129 344 -5 46
-10 85 -12 86 -2 2 -12 5 -22 7 -16 2 -25 -10 -47 -67 -33 -87 -58 -131 -123
-217 -46 -62 -76 -85 -76 -57 0 6 20 52 45 102 53 109 94 255 74 267 -14 9
-99 23 -105 18 -2 -2 -10 -37 -19 -77 -8 -41 -27 -101 -42 -135 -27 -60 -28
-65 -31 -305 l-3 -244 228 8 c125 4 255 10 288 14 45 5 74 2 115 -12 135 -44
190 -52 360 -51 91 1 194 7 230 14 36 6 157 14 270 17 162 4 230 2 325 -12
181 -25 229 -28 268 -16 46 15 62 53 54 127 -7 69 -27 100 -148 228 -52 54
-95 103 -97 107 -2 5 5 9 15 9 49 1 215 22 273 35 36 8 103 22 150 31 176 34
226 92 141 165 -97 84 -134 110 -333 231 -148 90 -277 178 -481 330 -267 200
-449 302 -606 340 -109 26 -259 28 -314 5 -31 -13 -51 -15 -110 -7 -40 4 -133
12 -207 15 l-135 7 -67 72 c-62 67 -197 186 -212 186 -3 0 -6 -19 -6 -41z"/>
<path d="M0 6316 c0 -71 4 -93 30 -148 16 -36 34 -86 41 -111 6 -26 16 -51 23
-56 6 -5 40 -12 75 -16 l64 -7 -6 68 c-7 91 -32 186 -65 253 -25 51 -31 56
-92 77 -36 13 -66 24 -67 24 -2 0 -3 -38 -3 -84z"/>
<path d="M1274 6216 c-133 -58 -108 -302 38 -377 74 -38 154 -20 205 48 25 32
28 45 28 107 -1 53 -6 81 -22 111 -55 103 -160 150 -249 111z"/>
<path d="M4440 4993 c-83 -43 -147 -101 -174 -157 -15 -33 -16 -45 -7 -76 12
-41 45 -79 88 -100 15 -8 42 -24 60 -37 49 -35 80 -44 178 -51 l90 -7 11 -35
12 -35 -50 -3 c-33 -2 -63 3 -87 14 -20 10 -65 20 -99 22 l-64 4 -51 -49 c-29
-28 -77 -64 -107 -80 -30 -16 -98 -54 -150 -84 -93 -53 -94 -54 -58 -57 50 -4
162 35 347 122 167 79 225 96 327 96 130 0 235 -40 322 -123 37 -37 42 -39 42
-19 0 15 -13 29 -40 44 -45 26 -46 31 -25 82 15 36 16 36 40 20 l25 -16 0 198
0 198 -25 -34 c-13 -18 -29 -48 -36 -67 l-11 -33 -56 58 c-84 84 -190 167
-266 207 -92 48 -140 47 -236 -2z"/>
<path d="M3441 4413 c-61 -61 -82 -231 -38 -308 22 -39 22 -40 5 -74 -19 -38
-24 -115 -9 -153 5 -13 24 -44 43 -69 35 -45 35 -46 17 -68 -11 -13 -19 -35
-19 -50 0 -63 87 -189 143 -207 12 -4 38 -19 57 -35 53 -42 78 -44 155 -13 63
25 72 26 119 15 44 -10 61 -23 133 -96 75 -76 90 -99 159 -237 42 -84 96 -210
120 -280 38 -111 42 -131 32 -155 -7 -16 -11 -81 -11 -153 0 -106 4 -139 27
-215 52 -179 139 -327 271 -465 30 -31 69 -88 90 -130 21 -41 58 -106 82 -144
51 -80 157 -340 214 -525 l38 -126 1 145 0 146 -45 114 c-25 63 -52 126 -59
140 -7 14 -17 43 -20 65 -15 87 -107 388 -140 461 -43 92 -108 185 -196 279
-37 38 -74 81 -83 95 -39 57 -6 150 53 150 16 0 55 -12 87 -26 34 -15 91 -30
138 -35 69 -8 83 -13 102 -36 21 -26 23 -26 65 -14 118 36 124 58 38 153 -33
36 -60 75 -60 85 -1 32 -54 118 -73 118 -21 0 -37 22 -37 53 0 12 -12 46 -26
74 -24 47 -25 53 -10 63 34 25 13 105 -28 105 -22 0 -24 5 -29 68 -3 37 -9 80
-13 95 -6 25 -3 29 25 40 37 14 42 47 9 62 -16 7 -23 18 -23 38 1 15 -1 27 -3
27 -2 0 -38 -17 -80 -37 -75 -37 -79 -38 -192 -38 -108 0 -119 2 -180 31 -36
17 -87 51 -115 76 -27 24 -70 56 -95 71 -64 37 -210 94 -315 123 -49 14 -109
36 -132 50 -57 33 -94 98 -103 178 l-6 61 -18 -42 c-38 -90 -66 -38 -66 121 0
132 17 200 62 252 45 51 99 75 184 81 41 3 74 8 74 10 0 2 -15 17 -32 33 -55
51 -106 73 -185 78 -69 4 -73 3 -102 -25z"/>
<path d="M4355 4306 c-92 -29 -165 -80 -200 -141 -49 -83 -23 -145 70 -166
224 -50 506 212 325 303 -41 21 -135 23 -195 4z"/>
<path d="M3626 3868 c-3 -7 -7 -29 -10 -49 -6 -33 -4 -36 29 -52 20 -9 44 -17
54 -17 17 0 16 6 -13 62 -31 62 -52 82 -60 56z"/>
<path d="M3822 3812 c-15 -16 -35 -38 -44 -49 -16 -21 -16 -22 10 -27 44 -8
214 -20 252 -18 45 3 122 22 135 33 5 5 -6 9 -25 9 -19 0 -88 18 -153 40 -66
22 -126 40 -134 40 -8 0 -27 -13 -41 -28z"/>
<path d="M5051 3573 c-9 -47 -9 -69 -2 -71 7 -2 11 -37 11 -87 0 -75 -2 -84
-20 -90 -24 -8 -26 -21 -4 -33 11 -6 16 -27 18 -75 2 -37 6 -70 9 -74 4 -3 7
107 7 245 0 139 -1 252 -3 252 -2 0 -9 -30 -16 -67z"/>
<path d="M0 3419 c0 -11 20 -14 88 -14 75 0 95 -4 143 -28 31 -15 68 -40 82
-55 31 -33 67 -100 67 -125 0 -24 16 -53 55 -102 50 -62 65 -99 65 -159 0 -62
-33 -161 -58 -175 -14 -8 -19 0 -34 49 -17 56 -71 120 -99 120 -18 0 -1 -51
31 -98 17 -23 30 -45 30 -47 0 -9 -78 -5 -104 4 -13 6 -46 26 -72 46 -41 32
-173 105 -189 105 -3 0 -5 -70 -5 -155 0 -152 0 -155 23 -159 12 -3 36 -8 52
-11 40 -9 61 -9 185 4 89 10 142 24 365 100 143 49 285 101 315 115 30 14 63
26 73 26 10 0 32 8 50 18 26 14 59 17 182 18 86 0 197 7 260 17 179 27 517 43
642 30 118 -12 159 -25 169 -56 12 -37 -9 -41 -239 -48 -217 -7 -550 -45 -742
-85 -97 -20 -229 -69 -233 -85 -1 -9 14 -19 40 -27 58 -18 224 -80 273 -102
22 -10 72 -32 112 -49 69 -30 263 -128 311 -158 12 -7 22 -20 22 -27 0 -27
-31 -25 -102 8 -335 155 -689 266 -948 299 -41 5 -160 -12 -160 -24 0 -4 17
-13 38 -20 160 -52 493 -243 716 -413 118 -89 135 -109 101 -122 -9 -4 -45 14
-88 43 -319 220 -666 382 -937 438 -58 12 -80 13 -102 4 -15 -6 -28 -14 -28
-18 0 -4 37 -23 82 -44 121 -55 277 -151 391 -243 168 -133 349 -339 334 -379
-10 -25 -30 -16 -67 31 -56 72 -205 209 -306 282 -118 85 -427 243 -443 226
-3 -2 18 -28 45 -57 196 -203 313 -425 345 -653 11 -83 6 -124 -15 -124 -17 0
-26 22 -26 63 0 98 -93 315 -193 451 -95 127 -309 326 -352 326 -18 0 -111 47
-130 66 -13 14 -15 12 -15 -16 0 -24 12 -43 58 -88 64 -63 82 -105 82 -189 0
-57 -46 -156 -75 -161 -15 -3 -16 3 -10 61 8 72 -4 124 -35 152 -18 16 -18 4
-19 -513 l-1 -529 82 -48 c105 -60 173 -70 247 -35 54 25 55 25 175 -49 53
-32 65 -35 131 -35 109 1 185 50 251 160 10 17 12 17 46 1 69 -33 150 -14 210
50 32 33 78 128 78 161 0 25 28 30 48 10 7 -7 36 -12 65 -12 125 0 227 117
227 260 l0 54 83 0 c65 0 92 5 133 24 73 34 97 72 99 160 l3 71 73 6 c106 8
152 35 187 112 15 33 23 70 25 119 l2 72 40 8 c136 26 244 77 270 129 32 62 6
167 -52 204 -13 9 -23 19 -23 24 0 5 28 18 62 31 69 25 151 71 184 104 54 55
59 115 13 155 -89 75 -112 99 -106 109 4 5 27 20 50 31 59 28 154 119 163 155
10 43 -6 78 -44 90 -19 7 -41 25 -52 44 -28 46 -60 55 -165 48 -141 -9 -311
-50 -665 -162 -113 -36 -214 -69 -225 -74 -29 -13 -266 -89 -530 -169 -126
-39 -277 -89 -335 -111 -58 -22 -110 -40 -116 -40 -6 0 -14 22 -16 48 -5 50
-11 66 -70 168 -20 34 -41 84 -47 111 -9 38 -25 63 -60 99 -126 130 -212 174
-353 182 -71 4 -88 2 -88 -9z m314 -685 c20 -8 11 -24 -15 -24 -19 0 -25 11
-12 23 8 8 8 8 27 1z"/>
<path d="M28 3328 c-28 -10 -28 -10 -28 -109 0 -98 0 -100 26 -109 58 -22 116
-6 164 45 53 57 16 151 -69 175 -43 12 -57 12 -93 -2z"/>
<path d="M5041 3077 c-12 -15 -5 -27 16 -27 7 0 13 9 13 20 0 23 -13 26 -29 7z"/>
<path d="M420 2982 c0 -15 28 -47 35 -40 8 8 -13 48 -25 48 -6 0 -10 -4 -10
-8z"/>
<path d="M4970 2356 l-55 -11 -3 -59 c-7 -138 44 -311 132 -451 l25 -40 1 143
0 143 -31 -17 c-22 -11 -34 -13 -42 -5 -8 8 1 21 31 47 36 30 42 41 42 73 0
26 -7 44 -21 57 -18 16 -20 27 -17 72 3 29 2 54 -1 56 -3 1 -31 -2 -61 -8z"/>
<path d="M5062 1460 c0 -14 2 -19 5 -12 2 6 2 18 0 25 -3 6 -5 1 -5 -13z"/>
<path d="M4778 640 c-15 -4 -39 -18 -54 -29 -15 -12 -38 -21 -51 -21 -30 0
-73 -45 -73 -76 0 -12 -6 -29 -13 -36 -40 -40 -47 -92 -22 -175 18 -62 46 -99
82 -108 15 -3 41 -19 59 -35 29 -25 43 -29 121 -34 48 -4 123 -9 166 -12 l78
-6 -3 73 -3 74 -40 7 c-62 11 -248 9 -327 -3 -84 -13 -103 -3 -65 35 24 24
169 76 212 76 15 0 16 3 7 12 -8 8 -51 12 -125 13 -93 0 -111 3 -109 15 6 28
47 49 117 61 116 19 140 29 58 25 -56 -4 -73 -2 -73 8 0 36 155 61 238 40 30
-8 62 -19 72 -24 31 -17 40 -11 40 24 0 31 -4 35 -52 54 -62 25 -168 52 -194
51 -11 0 -31 -4 -46 -9z"/>
</g>
</svg>
