<svg width="121" height="74" viewBox="0 0 121 74" fill="none" xmlns="http://www.w3.org/2000/svg">
<path d="M49.3139 37.2245C43.8597 37.2245 38.4068 37.2354 32.954 37.2164C31.7451 37.2124 30.6783 36.7859 29.7889 35.9195C28.8169 34.9733 28.1306 33.8307 27.4754 32.6692C26.3098 30.6034 25.4718 28.3995 24.9371 26.0914C24.665 24.9204 24.4985 23.725 24.2981 22.5378C23.9935 20.7319 23.9922 18.9057 24.0667 17.089C24.1411 15.2452 24.3915 13.4136 24.8099 11.609C25.3771 9.16553 26.2313 6.82627 27.4442 4.62915C28.1428 3.36476 28.8914 2.12472 29.9771 1.13785C30.6391 0.536786 31.4161 0.133379 32.3163 0.0968278C33.8244 0.0359094 35.3352 0.0210149 36.846 0.00883125C38.4569 -0.00470617 40.0679 -0.000646266 41.6802 0.00747618C46.3709 0.0318435 51.063 0.0778622 55.7537 0.0832771C58.9986 0.0859846 62.2435 0.0277711 65.4898 0.0128799C66.0611 0.0101724 66.6202 0.123896 67.1278 0.428488C67.6734 0.756093 67.917 1.28541 67.9522 1.85669C68.0132 2.83409 67.9698 3.81962 67.9712 4.80108C67.9712 4.91073 67.9712 5.02173 67.9712 5.13138C67.9712 9.12492 67.9644 13.1185 67.9753 17.112C67.9793 18.4563 68.0484 19.8019 68.0416 21.1462C68.0389 21.5983 67.9536 22.0721 67.802 22.4985C67.4663 23.4475 66.6472 23.7413 65.7483 23.7467C62.1122 23.7697 58.4774 23.7562 54.8413 23.7562C50.9574 23.7562 47.0735 23.7535 43.191 23.7602C42.8796 23.7602 42.5601 23.7859 42.2609 23.8604C41.4866 24.054 40.9993 24.5752 41.0277 25.5783C41.048 26.2998 41.5056 26.882 42.2772 27.0187C42.8634 27.1229 43.4658 27.1852 44.0614 27.1865C51.3472 27.1974 58.6317 27.192 65.9176 27.1987C66.214 27.1987 66.5173 27.2407 66.8056 27.3124C67.6463 27.5223 67.9062 28.038 67.9658 29.0114C68.0091 29.7248 67.9644 30.4436 67.978 31.1584C67.9902 31.773 68.0646 32.389 68.0484 33.0022C68.0226 33.9701 67.9874 34.9435 67.871 35.9033C67.779 36.6614 67.2023 37.1027 66.4117 37.1392C65.5358 37.1799 64.6586 37.2191 63.7827 37.2205C58.962 37.2286 54.1427 37.2245 49.3221 37.2245H49.3139ZM49.3275 10.3677C47.0843 10.3677 44.8398 10.3636 42.5967 10.3704C41.7601 10.3731 41.1103 10.9065 41.0331 11.6835C40.9465 12.5675 41.201 13.2213 42.1242 13.4759C42.4599 13.5679 42.816 13.6329 43.1625 13.6329C47.1127 13.6437 51.063 13.6424 55.0145 13.6356C55.464 13.6356 55.9161 13.6112 56.3602 13.5503C57.8032 13.3513 57.9264 11.8622 57.4743 11.1027C57.1318 10.5274 56.5713 10.3785 55.977 10.3744C53.761 10.3568 51.5449 10.3677 49.3288 10.3677H49.3275Z" fill="#6100FF"/>
<path d="M71.8904 18.6756C71.8904 13.4976 71.8809 8.31951 71.9012 3.14145C71.9039 2.48218 72.0149 1.81342 72.1544 1.16633C72.3222 0.382512 73.1006 -0.0547413 73.9047 0.224129C74.6425 0.479987 75.3573 0.826543 76.0437 1.20424C77.434 1.97181 78.7972 2.79083 80.1739 3.58277C81.5155 4.3544 82.8638 5.11655 84.2054 5.88953C85.5943 6.6896 86.9792 7.49643 88.3641 8.30056C90.6194 9.60962 92.8734 10.9214 95.1301 12.2264C97.3285 13.4976 99.5365 14.7525 101.731 16.0304C102.458 16.4528 103.181 16.8887 103.862 17.3814C104.652 17.9527 104.95 19.0709 104.067 19.7478C103.359 20.292 102.619 20.8037 101.854 21.2653C100.4 22.1412 98.9192 22.9697 97.449 23.8199C96.1088 24.5955 94.7713 25.3739 93.4298 26.1483C92.1004 26.9159 90.767 27.6753 89.4389 28.4429C88.0987 29.2172 86.7612 29.9983 85.421 30.774C84.07 31.5565 82.719 32.3389 81.3652 33.1187C79.9993 33.9052 78.6401 34.7012 77.2634 35.4688C76.2345 36.0414 75.2734 36.7413 74.1214 37.0825C73.0194 37.4101 72.3628 37.0906 72.1043 35.9886C71.9716 35.4241 71.8985 34.8325 71.8972 34.2531C71.8823 29.0615 71.8877 23.8699 71.8877 18.6783L71.8904 18.6756ZM82.1111 18.7068L82.172 18.7162C82.172 18.964 82.1477 19.2144 82.1775 19.4594C82.2397 19.9888 82.4956 20.2663 82.922 20.1634C83.4175 20.0429 83.9509 19.9671 84.3827 19.7221C85.0826 19.3254 85.1476 18.6607 84.7306 18.0759C84.2582 17.4126 83.5082 17.2515 82.7406 17.2434C82.5971 17.242 82.3656 17.4167 82.3223 17.5561C82.2086 17.9257 82.1761 18.321 82.1111 18.7068Z" fill="#6100FF"/>
<path d="M15.1048 58.8153C15.9238 58.8153 16.579 59.4705 16.579 60.257V63.5006C16.579 64.3196 15.9238 64.9748 15.1048 64.9748H1.86924C1.05023 64.9748 0.39502 64.3196 0.39502 63.5006V43.4828C0.39502 42.6963 1.05023 42.0411 1.86924 42.0411H14.811C15.5975 42.0411 16.2528 42.6963 16.2528 43.4828V46.7589C16.2528 47.5454 15.5975 48.2006 14.811 48.2006H7.7675V50.7565H13.7632C14.5822 50.7565 15.2374 51.4117 15.2374 52.1982V54.5903C15.2374 55.4093 14.5822 56.0645 13.7632 56.0645H7.7675V58.8167H15.1061L15.1048 58.8153Z" fill="#6100FF"/>
<path d="M31.3224 42.0399H35.4838C36.139 42.0399 36.6629 42.5637 36.6629 43.219V63.7945C36.6629 64.4497 36.139 64.9736 35.4838 64.9736H31.0273C30.5359 64.9736 30.1433 64.581 30.1433 64.0896V63.697C29.128 64.7123 27.7187 65.3675 25.8506 65.3675C20.6739 65.3675 18.1519 61.0423 18.1519 56.6846C18.1519 52.3269 20.6739 47.9692 25.8506 47.9692C27.6849 47.9692 29.0941 48.592 30.1433 49.5748V43.219C30.1433 42.5637 30.6672 42.0399 31.3224 42.0399ZM29.9795 56.6846C29.9795 55.1116 28.9303 53.9988 27.2923 53.9988C25.6543 53.9988 24.639 55.1129 24.639 56.6846C24.639 58.2563 25.6868 59.338 27.2923 59.338C28.8979 59.338 29.9795 58.2238 29.9795 56.6846Z" fill="#6100FF"/>
<path d="M55.6317 42.0399H60.8084C61.6274 42.0399 62.1851 42.8264 61.9225 43.5804L55.1727 63.762C54.944 64.4835 54.2549 64.975 53.5022 64.975H47.0801C46.326 64.975 45.6383 64.4835 45.4096 63.762L38.6598 43.5804C38.3972 42.8264 38.9549 42.0399 39.7739 42.0399H44.9506C45.6058 42.0399 46.1961 42.4663 46.3599 43.1215L50.2911 57.3412L54.2224 43.1215C54.3862 42.4663 54.9764 42.0399 55.6317 42.0399Z" fill="#0B0033"/>
<path d="M63.7568 43.7117C63.7568 41.8435 65.2635 40.3368 67.1317 40.3368C68.9999 40.3368 70.5066 41.8435 70.5066 43.7117C70.5066 45.5799 68.9999 47.0866 67.1317 47.0866C65.2635 47.0866 63.7568 45.5799 63.7568 43.7117ZM63.8881 63.7958V49.5436C63.8881 48.8884 64.412 48.3645 65.0673 48.3645H69.2287C69.8514 48.3645 70.3753 48.8884 70.3753 49.5436V63.7958C70.3753 64.451 69.8514 64.9749 69.2287 64.9749H65.0673C64.412 64.9749 63.8881 64.451 63.8881 63.7958Z" fill="#0B0033"/>
<path d="M87.2469 59.7319C87.2469 63.4994 84.2321 65.3676 79.3505 65.3676C76.5334 65.3676 73.2898 64.6799 72.0769 62.4841C71.8142 62.0252 72.0444 61.4024 72.5683 61.2386L76.6308 59.9932C76.9585 59.8944 77.351 59.9932 77.5487 60.2558C77.8438 60.6159 78.3677 60.9435 79.2192 60.9435C80.202 60.9435 80.7598 60.551 80.7598 59.9607C80.7598 59.1092 79.383 59.0429 77.7125 58.6828C74.4364 57.9951 72.1757 56.9459 72.1757 53.4736C72.1757 49.8036 75.583 47.9693 79.8094 47.9693C82.299 47.9693 85.0511 48.9521 86.1977 51.0815C86.4929 51.5729 86.1977 52.1957 85.6414 52.3595L82.169 53.1785C81.8414 53.2773 81.4813 53.1785 81.285 52.9158C80.9574 52.5233 80.466 52.3256 79.8758 52.3256C78.9579 52.3256 78.4015 52.7182 78.4015 53.3084C78.4015 54.095 79.3519 54.1938 80.6948 54.4875C84.8887 55.3715 87.2469 56.5182 87.2469 59.7292V59.7319Z" fill="#0B0033"/>
<path d="M98.9758 53.9H96.8789V57.4386C96.8789 58.454 97.4353 59.273 98.877 59.273C98.9758 59.273 99.1058 59.273 99.2371 59.2405C99.7285 59.208 100.155 59.6331 100.155 60.1245V64.2859C100.155 64.6785 99.8273 65.0399 99.4348 65.1374C98.9433 65.2362 98.3206 65.3012 97.2728 65.3012C91.736 65.3012 90.3931 61.2386 90.3931 57.995V53.9H89.214C88.5913 53.9 88.0674 53.3761 88.0674 52.7533V49.5423C88.0674 48.8871 88.5913 48.3632 89.214 48.3632H90.3931V46.0374C90.3931 45.4147 90.917 44.8908 91.5722 44.8908H95.7011C96.3563 44.8908 96.8802 45.4147 96.8802 46.0374V48.3632H98.9772C99.6324 48.3632 100.156 48.8871 100.156 49.5423V52.7533C100.156 53.3761 99.6324 53.9 98.9772 53.9H98.9758Z" fill="#0B0033"/>
<path d="M120.108 56.6859C120.108 61.8302 116.144 65.4013 110.935 65.4013C105.726 65.4013 101.794 61.8302 101.794 56.6859C101.794 51.5417 105.758 47.9706 110.935 47.9706C116.112 47.9706 120.108 51.5092 120.108 56.6859ZM113.621 56.6859C113.621 55.1129 112.572 54.0001 110.934 54.0001C109.296 54.0001 108.28 55.1142 108.28 56.6859C108.28 58.2576 109.328 59.3731 110.934 59.3731C112.539 59.3731 113.621 58.259 113.621 56.6859Z" fill="#0B0033"/>
<path d="M0.487305 68.2727C0.487305 68.2321 0.500843 68.1982 0.527917 68.1685C0.554992 68.14 0.592896 68.1251 0.641631 68.1251H1.30632C1.34693 68.1251 1.38213 68.1373 1.41191 68.163C1.44169 68.1888 1.45658 68.2253 1.45658 68.2713V72.1809H3.55353C3.59414 72.1809 3.62799 72.1945 3.65777 72.2229C3.6862 72.2513 3.70109 72.2879 3.70109 72.3353V72.9485C3.70109 72.9891 3.68755 73.0243 3.66048 73.0541C3.6334 73.0839 3.5982 73.0988 3.55353 73.0988H0.634863C0.537394 73.0988 0.487305 73.05 0.487305 72.9512V68.27V68.2727Z" fill="#0B0033"/>
<path d="M5.04834 68.285C5.04834 68.178 5.09707 68.1239 5.1959 68.1239H8.42592C8.48414 68.1239 8.52475 68.1401 8.55047 68.1726C8.57484 68.2051 8.58702 68.2457 8.58702 68.2958V68.8874C8.58702 68.928 8.57348 68.9632 8.54505 68.9943C8.51663 69.0255 8.47466 69.0417 8.41916 69.0417H6.03657V70.057H7.87224C7.91692 70.053 7.95211 70.0624 7.97919 70.0855C8.00626 70.1085 8.0198 70.1491 8.0198 70.2046V70.8111C8.0198 70.8517 8.00897 70.8869 7.98596 70.918C7.96294 70.9491 7.92775 70.9654 7.87901 70.9654H6.03657V72.181H8.5058C8.56807 72.181 8.61003 72.1946 8.63034 72.2216C8.65065 72.2487 8.66012 72.2893 8.66012 72.3462V72.9581C8.66012 73.0529 8.61139 73.0989 8.51256 73.0989H5.1959C5.15528 73.0989 5.12144 73.088 5.09166 73.065C5.06188 73.042 5.04834 73.0068 5.04834 72.9581V68.2836V68.285Z" fill="#0B0033"/>
<path d="M9.78862 72.9769C9.79945 72.9323 9.81299 72.8917 9.82652 72.8524C9.84141 72.8145 9.8536 72.7793 9.86578 72.7482L11.6717 68.2524C11.6784 68.228 11.6974 68.2009 11.7272 68.1698C11.757 68.1387 11.7976 68.1251 11.849 68.1251H12.3892C12.4433 68.1251 12.4812 68.1387 12.5042 68.1657C12.5272 68.1928 12.5448 68.2158 12.5557 68.2361L12.6667 68.4974L14.436 72.9241C14.436 72.9241 14.4374 72.9431 14.4414 72.9593C14.4455 72.9756 14.4468 72.9905 14.4468 73.0013C14.4468 73.069 14.3981 73.1015 14.2993 73.1015H13.6387C13.5899 73.1015 13.552 73.092 13.5249 73.0717C13.4979 73.0514 13.4762 73.0203 13.4573 72.9783L13.3963 72.824L13.2691 72.5018C13.2271 72.3948 13.1852 72.2865 13.1445 72.1769H11.0774C11.0192 72.3339 10.9623 72.4801 10.9082 72.6168C10.854 72.7536 10.8066 72.8741 10.7687 72.9769C10.7376 73.0595 10.6794 73.1015 10.5941 73.1015H9.92399C9.88203 73.1015 9.84683 73.0934 9.82246 73.0785C9.79674 73.0622 9.7832 73.0392 9.7832 73.0081C9.7832 72.9945 9.7832 72.9851 9.78726 72.9783L9.78862 72.9769ZM12.1211 69.4017C12.0006 69.7104 11.8801 70.0298 11.761 70.3602C11.6419 70.6905 11.5214 71.0086 11.4009 71.3145H12.8278L12.1211 69.4017Z" fill="#0B0033"/>
<path d="M15.8306 68.2822C15.8306 68.1766 15.8793 68.1251 15.9781 68.1251H18.029C18.2551 68.1251 18.4663 68.1671 18.6626 68.2524C18.8589 68.3377 19.0308 68.4527 19.177 68.5976C19.3232 68.7424 19.4383 68.913 19.5222 69.1106C19.6062 69.3069 19.6481 69.5168 19.6481 69.7374C19.6481 69.8918 19.6265 70.0393 19.5845 70.1801C19.5425 70.3209 19.483 70.4509 19.4072 70.5727C19.3313 70.6945 19.2406 70.8028 19.1364 70.8989C19.0322 70.9951 18.9157 71.0776 18.7885 71.1453L19.6603 72.8646C19.6644 72.8876 19.6725 72.9092 19.6833 72.9309C19.6941 72.9526 19.6996 72.9769 19.6996 73.0013C19.6996 73.069 19.6603 73.1015 19.5818 73.1015H18.8047C18.7249 73.1015 18.6707 73.0609 18.6436 72.9769L17.8328 71.3687C17.7976 71.3687 17.7583 71.3687 17.7177 71.3701C17.6757 71.3701 17.6189 71.3714 17.5471 71.3714H16.808V72.9566C16.808 73.0528 16.7565 73.1001 16.6536 73.1001H15.9808C15.9362 73.1001 15.901 73.0879 15.8739 73.0649C15.8468 73.0419 15.8333 73.0054 15.8333 72.9566V68.2822H15.8306ZM18.6545 69.7415C18.6545 69.6454 18.6369 69.5533 18.6003 69.4626C18.5651 69.3719 18.515 69.2921 18.4501 69.2203C18.3851 69.1486 18.3079 69.0917 18.2186 69.047C18.1292 69.0024 18.0318 68.9766 17.9275 68.9699C17.849 68.9671 17.7732 68.9658 17.6974 68.9645C17.6229 68.9645 17.5444 68.9631 17.4645 68.9631H16.8039V70.5172H17.8138C17.8531 70.5172 17.895 70.5145 17.9397 70.5104C18.0453 70.5036 18.1414 70.4793 18.2294 70.4373C18.3174 70.3954 18.3932 70.3385 18.4555 70.2681C18.5177 70.1977 18.5665 70.1178 18.6017 70.0271C18.6369 69.9364 18.6531 69.8417 18.6531 69.7415H18.6545Z" fill="#0B0033"/>
<path d="M21.1646 68.2754C21.1646 68.2334 21.1767 68.1969 21.2038 68.1685C21.2295 68.14 21.2661 68.1251 21.3121 68.1251H22.0824C22.1135 68.1251 22.1433 68.1319 22.1717 68.1468C22.2002 68.1617 22.2245 68.1847 22.2475 68.2158C22.6293 68.7614 23.0083 69.3015 23.3833 69.839C23.7583 70.3764 24.1374 70.9179 24.5191 71.4621V68.2524C24.5259 68.2118 24.5421 68.1806 24.5692 68.159C24.5963 68.1373 24.6288 68.1251 24.6667 68.1251H25.3138C25.3584 68.1251 25.3977 68.1387 25.4288 68.1657C25.4613 68.1928 25.4776 68.228 25.4776 68.2727V72.9634C25.4776 73.0554 25.4248 73.1001 25.3205 73.1001H24.5936C24.5448 73.1001 24.4988 73.0704 24.4568 73.0094C24.0643 72.4395 23.6717 71.8709 23.2832 71.3024C22.8933 70.7338 22.5034 70.1639 22.1122 69.5926V72.9526C22.1122 73.0013 22.1 73.0379 22.077 73.0636C22.054 73.0893 22.0133 73.1001 21.9578 73.1001H21.3148C21.2634 73.1001 21.2255 73.088 21.2025 73.0622C21.1794 73.0365 21.1673 73.0013 21.1673 72.9566V68.2754H21.1646Z" fill="#0B0033"/>
<path d="M27.2319 68.2727C27.2319 68.2321 27.2441 68.1982 27.2685 68.1685C27.2929 68.14 27.3294 68.1251 27.3781 68.1251H28.0428C28.0807 68.1251 28.1159 68.1387 28.1498 68.1657C28.1836 68.1928 28.1999 68.228 28.1999 68.2727V72.9539C28.1999 73.0527 28.1471 73.1015 28.0428 73.1015H27.3781C27.2807 73.1015 27.2319 73.0527 27.2319 72.9539V68.2727Z" fill="#0B0033"/>
<path d="M29.9624 68.2754C29.9624 68.2334 29.9746 68.1969 30.0017 68.1685C30.0274 68.14 30.0639 68.1251 30.11 68.1251H30.8802C30.9114 68.1251 30.9412 68.1319 30.9696 68.1468C30.998 68.1617 31.0224 68.1847 31.0454 68.2158C31.4272 68.7614 31.8062 69.3015 32.1812 69.839C32.5562 70.3764 32.9352 70.9179 33.317 71.4621V68.2524C33.3237 68.2118 33.34 68.1806 33.3671 68.159C33.3941 68.1373 33.4266 68.1251 33.4645 68.1251H34.1116C34.1563 68.1251 34.1956 68.1387 34.2267 68.1657C34.2592 68.1928 34.2754 68.228 34.2754 68.2727V72.9634C34.2754 73.0554 34.2226 73.1001 34.1184 73.1001H33.3914C33.3427 73.1001 33.2967 73.0704 33.2547 73.0094C32.8621 72.4395 32.4695 71.8709 32.081 71.3024C31.6911 70.7338 31.3013 70.1639 30.91 69.5926V72.9526C30.91 73.0013 30.8978 73.0379 30.8748 73.0636C30.8518 73.0893 30.8112 73.1001 30.7557 73.1001H30.1127C30.0612 73.1001 30.0233 73.088 30.0003 73.0622C29.9773 73.0365 29.9651 73.0013 29.9651 72.9566V68.2754H29.9624Z" fill="#0B0033"/>
<path d="M39.1229 71.0195C39.1229 70.9748 39.1351 70.9396 39.1595 70.9126C39.1838 70.8855 39.2204 70.8719 39.2705 70.8719H39.816C39.8539 70.8719 39.8891 70.8855 39.923 70.9126C39.9568 70.9396 39.9731 70.9748 39.9731 71.0195V72.5574C39.9731 72.5844 39.9663 72.6102 39.9528 72.6345C39.9392 72.6589 39.9149 72.6833 39.8797 72.7049C39.877 72.7049 39.8756 72.7049 39.8756 72.7063C39.8756 72.7063 39.8756 72.7076 39.8729 72.7076C39.7673 72.7807 39.6549 72.8471 39.5345 72.9053C39.414 72.9635 39.2881 73.0122 39.1554 73.0515C39.0241 73.0907 38.8887 73.1205 38.7506 73.1422C38.6126 73.1638 38.4731 73.1747 38.335 73.1747C38.1009 73.1747 37.8734 73.1449 37.6555 73.084C37.4375 73.023 37.2331 72.9378 37.0436 72.8254C36.8554 72.713 36.6821 72.5804 36.5278 72.4247C36.3721 72.269 36.2395 72.0971 36.1271 71.9089C36.0147 71.7208 35.9295 71.5163 35.8685 71.2997C35.8076 71.0818 35.7778 70.8544 35.7778 70.6174C35.7778 70.3805 35.8076 70.1572 35.8685 69.9392C35.9295 69.7213 36.0147 69.5182 36.1271 69.3273C36.2395 69.1378 36.3721 68.9645 36.5278 68.8075C36.6835 68.6518 36.8554 68.5178 37.0449 68.4054C37.2345 68.2931 37.4389 68.2078 37.6568 68.1455C37.8748 68.0846 38.1022 68.0535 38.3391 68.0535C38.4975 68.0535 38.6559 68.067 38.8129 68.0954C38.97 68.1239 39.1229 68.1658 39.2705 68.2213C39.326 68.2443 39.3923 68.2714 39.4695 68.3053C39.5466 68.3391 39.6197 68.3756 39.6888 68.4163C39.7578 68.4569 39.816 68.4975 39.8648 68.5408C39.9122 68.5828 39.9365 68.6247 39.9365 68.6653C39.9365 68.6829 39.9257 68.7114 39.9067 68.7506C39.8864 68.7899 39.8621 68.8346 39.8309 68.8833C39.8012 68.932 39.7673 68.9835 39.7294 69.0363C39.6915 69.0891 39.6549 69.1365 39.6184 69.1784C39.5832 69.2204 39.5507 69.2556 39.5209 69.284C39.4925 69.3124 39.4695 69.326 39.4532 69.326C39.4397 69.326 39.4235 69.3233 39.4045 69.3179C39.3856 69.3124 39.3666 69.3016 39.3463 69.2854C39.2055 69.1865 39.0471 69.1094 38.8711 69.0512C38.6951 68.993 38.5151 68.9645 38.3323 68.9645C38.0927 68.9645 37.8748 69.0092 37.6758 69.0986C37.4768 69.1879 37.3062 69.3084 37.1627 69.46C37.0192 69.6116 36.9082 69.7876 36.8283 69.988C36.7485 70.1883 36.7079 70.3981 36.7079 70.6202C36.7079 70.8422 36.7512 71.0615 36.8365 71.2618C36.9231 71.4622 37.0382 71.6355 37.1844 71.7844C37.3306 71.9333 37.5025 72.0497 37.6988 72.1363C37.8951 72.223 38.1036 72.265 38.3256 72.265C38.4082 72.265 38.4894 72.2595 38.5706 72.246C38.6518 72.2325 38.7263 72.2176 38.7967 72.1986C38.8671 72.1797 38.9307 72.158 38.9862 72.135C39.0417 72.112 39.0877 72.089 39.1229 72.0659V71.0209V71.0195Z" fill="#0B0033"/>
<path d="M44.1348 68.2727C44.1348 68.228 44.1497 68.1928 44.1781 68.1657C44.2065 68.1387 44.2444 68.1251 44.2891 68.1251H47.8142C47.8548 68.1251 47.8914 68.1373 47.9225 68.1617C47.955 68.186 47.974 68.2226 47.978 68.2727V68.8589C47.978 68.9035 47.9645 68.9428 47.9361 68.9766C47.9076 69.0105 47.867 69.0267 47.8142 69.0267H46.5404V72.9471C46.5404 72.9878 46.5268 73.023 46.4984 73.0541C46.47 73.0852 46.4321 73.1015 46.3833 73.1015H45.7227C45.6821 73.1015 45.6455 73.0866 45.6144 73.0582C45.5819 73.0297 45.5657 72.9918 45.5657 72.9471V69.0267H44.2891C44.2444 69.0267 44.2079 69.0132 44.1781 68.9848C44.1497 68.9563 44.1348 68.9144 44.1348 68.8589V68.2727Z" fill="#0B0033"/>
<path d="M49.436 68.2728C49.436 68.2349 49.4482 68.201 49.4739 68.1712C49.4997 68.1415 49.5349 68.1266 49.5795 68.1266H50.2469C50.2848 68.1266 50.32 68.1415 50.3539 68.1699C50.3877 68.1983 50.404 68.2335 50.404 68.2741V70.0096H52.6525V68.2741C52.6525 68.2335 52.6661 68.1997 52.6931 68.1699C52.7202 68.1415 52.7554 68.1266 52.8001 68.1266H53.458C53.5027 68.1266 53.5406 68.1387 53.5731 68.1645C53.6056 68.1902 53.6218 68.2254 53.6218 68.2701V72.954C53.6218 73.0528 53.569 73.1016 53.4648 73.1016H52.8001C52.7026 73.1016 52.6539 73.0528 52.6539 72.954V70.9275H50.4053V72.954C50.4053 73.0528 50.3512 73.1016 50.2415 73.1016H49.5809C49.4848 73.1016 49.4374 73.0555 49.4374 72.9648V68.2741L49.436 68.2728Z" fill="#0B0033"/>
<path d="M55.376 68.2822C55.376 68.1766 55.4247 68.1251 55.5235 68.1251H57.5745C57.8005 68.1251 58.0117 68.1671 58.208 68.2524C58.4043 68.3377 58.5762 68.4527 58.7224 68.5976C58.8686 68.7424 58.9837 68.913 59.0676 69.1106C59.1516 69.3069 59.1935 69.5168 59.1935 69.7374C59.1935 69.8918 59.1719 70.0393 59.1299 70.1801C59.0879 70.3209 59.0284 70.4509 58.9526 70.5727C58.8767 70.6945 58.7861 70.8028 58.6818 70.8989C58.5776 70.9951 58.4612 71.0776 58.3339 71.1453L59.2057 72.8646C59.2098 72.8876 59.2179 72.9092 59.2287 72.9309C59.2396 72.9526 59.245 72.9769 59.245 73.0013C59.245 73.069 59.2057 73.1015 59.1272 73.1015H58.3501C58.2703 73.1015 58.2161 73.0609 58.1891 72.9769L57.3782 71.3687C57.343 71.3687 57.3037 71.3687 57.2631 71.3701C57.2211 71.3701 57.1643 71.3714 57.0925 71.3714H56.3534V72.9566C56.3534 73.0528 56.3019 73.1001 56.1991 73.1001H55.5262C55.4816 73.1001 55.4464 73.0879 55.4193 73.0649C55.3922 73.0419 55.3787 73.0054 55.3787 72.9566V68.2822H55.376ZM58.1999 69.7415C58.1999 69.6454 58.1823 69.5533 58.1457 69.4626C58.1105 69.3719 58.0604 69.2921 57.9955 69.2203C57.9305 69.1486 57.8533 69.0917 57.764 69.047C57.6746 69.0024 57.5772 68.9766 57.4729 68.9699C57.3944 68.9671 57.3186 68.9658 57.2428 68.9645C57.1683 68.9645 57.0898 68.9631 57.0099 68.9631H56.3493V70.5172H57.3592C57.3985 70.5172 57.4404 70.5145 57.4851 70.5104C57.5907 70.5036 57.6868 70.4793 57.7748 70.4373C57.8628 70.3954 57.9386 70.3385 58.0009 70.2681C58.0632 70.1977 58.1119 70.1178 58.1471 70.0271C58.1823 69.9364 58.1985 69.8417 58.1985 69.7415H58.1999Z" fill="#0B0033"/>
<path d="M60.5093 70.6174C60.5093 70.3832 60.5391 70.1558 60.6 69.9379C60.6609 69.7199 60.7462 69.5141 60.8585 69.3246C60.9709 69.1351 61.1036 68.9618 61.2593 68.8048C61.4149 68.6477 61.5869 68.5151 61.7764 68.4041C61.9659 68.2931 62.1703 68.2078 62.3883 68.1455C62.6062 68.0846 62.8337 68.0535 63.0706 68.0535C63.3075 68.0535 63.5308 68.0846 63.7488 68.1455C63.9667 68.2064 64.1698 68.2931 64.3607 68.4041C64.5516 68.5151 64.7235 68.6477 64.8805 68.8048C65.0375 68.9618 65.1702 69.1337 65.2812 69.3246C65.3922 69.5155 65.4775 69.7186 65.5398 69.9379C65.6007 70.1572 65.6318 70.3846 65.6318 70.6215C65.6318 70.8584 65.6007 71.0845 65.5398 71.3011C65.4789 71.5177 65.3922 71.7208 65.2812 71.9103C65.1702 72.0998 65.0375 72.2731 64.8805 72.4274C64.7248 72.5831 64.5516 72.7158 64.3607 72.8268C64.1711 72.9378 63.9667 73.023 63.7488 73.0826C63.5308 73.1435 63.3034 73.1733 63.0665 73.1733C62.8296 73.1733 62.6022 73.1435 62.3842 73.0826C62.1663 73.0217 61.9618 72.9364 61.7723 72.8241C61.5828 72.7117 61.4095 72.579 61.2552 72.4233C61.0995 72.2677 60.9668 72.0957 60.8558 71.9076C60.7448 71.7194 60.6595 71.515 60.6 71.2984C60.5391 71.0804 60.5093 70.853 60.5093 70.6161V70.6174ZM61.4772 70.6107C61.4772 70.8367 61.5178 71.0479 61.599 71.2442C61.6803 71.4405 61.7926 71.6111 61.9334 71.7573C62.0742 71.9035 62.2434 72.0172 62.4357 72.1025C62.6292 72.1878 62.8377 72.2298 63.0638 72.2298C63.2899 72.2298 63.4956 72.1878 63.6892 72.1025C63.8828 72.0172 64.0507 71.9022 64.1928 71.7573C64.335 71.6125 64.4473 71.4419 64.5299 71.2442C64.6111 71.0479 64.6517 70.8367 64.6517 70.6107C64.6517 70.3846 64.6111 70.1775 64.5299 69.9812C64.4487 69.7849 64.3363 69.613 64.1928 69.4668C64.0493 69.3206 63.8815 69.2055 63.6892 69.1202C63.4956 69.0349 63.2872 68.993 63.0638 68.993C62.8404 68.993 62.6292 69.0349 62.4357 69.1202C62.2421 69.2055 62.0742 69.3206 61.9334 69.4668C61.7913 69.613 61.6803 69.7849 61.599 69.9812C61.5178 70.1775 61.4772 70.3873 61.4772 70.6107Z" fill="#0B0033"/>
<path d="M68.108 71.0804C68.108 71.2686 68.1351 71.4365 68.1879 71.5867C68.2421 71.737 68.3165 71.8629 68.414 71.9671C68.5115 72.0714 68.6279 72.1499 68.7619 72.2054C68.8973 72.2609 69.0475 72.288 69.2127 72.288C69.3873 72.288 69.543 72.2595 69.6811 72.2013C69.8192 72.1431 69.9356 72.0605 70.0317 71.9549C70.1265 71.8493 70.1996 71.7221 70.2497 71.5732C70.2997 71.4243 70.3255 71.2605 70.3255 71.0818V68.2741C70.3255 68.2335 70.3404 68.1997 70.3688 68.1699C70.3972 68.1415 70.4338 68.1266 70.4784 68.1266H71.1269C71.1729 68.1266 71.2135 68.1415 71.246 68.1699C71.2785 68.1983 71.2948 68.2335 71.2948 68.2741V71.1183C71.2948 71.4649 71.2392 71.7668 71.1269 72.0253C71.0159 72.2839 70.8643 72.4978 70.6747 72.6697C70.4852 72.8416 70.2645 72.9702 70.0114 73.0555C69.7596 73.1408 69.4929 73.1828 69.2113 73.1828C68.9298 73.1828 68.6631 73.1381 68.4113 73.0474C68.1595 72.9567 67.9375 72.824 67.7479 72.6508C67.5584 72.4761 67.4082 72.2609 67.2958 72.0037C67.1834 71.7465 67.1279 71.4513 67.1279 71.1197V68.2755C67.1279 68.2403 67.1401 68.2064 67.1658 68.1753C67.1916 68.1442 67.224 68.1279 67.2647 68.1279H67.9483C67.9821 68.1279 68.016 68.1428 68.0525 68.1712C68.0877 68.1997 68.1067 68.2349 68.1067 68.2755V71.0831L68.108 71.0804Z" fill="#0B0033"/>
<path d="M76.0585 71.0195C76.0585 70.9748 76.0707 70.9396 76.095 70.9126C76.1194 70.8855 76.1559 70.8719 76.206 70.8719H76.7516C76.7895 70.8719 76.8247 70.8855 76.8585 70.9126C76.8924 70.9396 76.9086 70.9748 76.9086 71.0195V72.5574C76.9086 72.5844 76.9019 72.6102 76.8883 72.6345C76.8748 72.6589 76.8504 72.6833 76.8152 72.7049C76.8125 72.7049 76.8112 72.7049 76.8112 72.7063C76.8112 72.7063 76.8112 72.7076 76.8084 72.7076C76.7029 72.7807 76.5905 72.8471 76.47 72.9053C76.3495 72.9635 76.2236 73.0122 76.091 73.0515C75.9597 73.0907 75.8243 73.1205 75.6862 73.1422C75.5481 73.1638 75.4087 73.1747 75.2706 73.1747C75.0364 73.1747 74.809 73.1449 74.591 73.084C74.3731 73.023 74.1686 72.9378 73.9791 72.8254C73.791 72.713 73.6177 72.5804 73.4633 72.4247C73.3077 72.269 73.175 72.0971 73.0626 71.9089C72.9503 71.7208 72.865 71.5163 72.8041 71.2997C72.7432 71.0818 72.7134 70.8544 72.7134 70.6174C72.7134 70.3805 72.7432 70.1572 72.8041 69.9392C72.865 69.7213 72.9503 69.5182 73.0626 69.3273C73.175 69.1378 73.3077 68.9645 73.4633 68.8075C73.619 68.6518 73.791 68.5178 73.9805 68.4054C74.17 68.2931 74.3744 68.2078 74.5924 68.1455C74.8103 68.0846 75.0378 68.0535 75.2747 68.0535C75.433 68.0535 75.5914 68.067 75.7485 68.0954C75.9055 68.1239 76.0585 68.1658 76.206 68.2213C76.2615 68.2443 76.3279 68.2714 76.405 68.3053C76.4822 68.3391 76.5553 68.3756 76.6243 68.4163C76.6934 68.4569 76.7516 68.4975 76.8003 68.5408C76.8477 68.5828 76.8721 68.6247 76.8721 68.6653C76.8721 68.6829 76.8612 68.7114 76.8423 68.7506C76.822 68.7899 76.7976 68.8346 76.7665 68.8833C76.7367 68.932 76.7029 68.9835 76.665 69.0363C76.627 69.0891 76.5905 69.1365 76.5539 69.1784C76.5187 69.2204 76.4863 69.2556 76.4565 69.284C76.428 69.3124 76.405 69.326 76.3888 69.326C76.3753 69.326 76.359 69.3233 76.34 69.3179C76.3211 69.3124 76.3021 69.3016 76.2818 69.2854C76.1411 69.1865 75.9827 69.1094 75.8067 69.0512C75.6307 68.993 75.4506 68.9645 75.2679 68.9645C75.0283 68.9645 74.8103 69.0092 74.6113 69.0986C74.4123 69.1879 74.2418 69.3084 74.0983 69.46C73.9548 69.6116 73.8438 69.7876 73.7639 69.988C73.684 70.1883 73.6434 70.3981 73.6434 70.6202C73.6434 70.8422 73.6867 71.0615 73.772 71.2618C73.8586 71.4622 73.9737 71.6355 74.1199 71.7844C74.2661 71.9333 74.438 72.0497 74.6343 72.1363C74.8306 72.223 75.0391 72.265 75.2611 72.265C75.3437 72.265 75.4249 72.2595 75.5061 72.246C75.5874 72.2325 75.6618 72.2176 75.7322 72.1986C75.8026 72.1797 75.8662 72.158 75.9217 72.135C75.9773 72.112 76.0233 72.089 76.0585 72.0659V71.0209V71.0195Z" fill="#0B0033"/>
<path d="M78.6226 68.2728C78.6226 68.2349 78.6347 68.201 78.6605 68.1712C78.6862 68.1415 78.7214 68.1266 78.7661 68.1266H79.4334C79.4714 68.1266 79.5065 68.1415 79.5404 68.1699C79.5742 68.1983 79.5905 68.2335 79.5905 68.2741V70.0096H81.839V68.2741C81.839 68.2335 81.8526 68.1997 81.8797 68.1699C81.9067 68.1415 81.9419 68.1266 81.9866 68.1266H82.6445C82.6892 68.1266 82.7271 68.1387 82.7596 68.1645C82.7921 68.1902 82.8083 68.2254 82.8083 68.2701V72.954C82.8083 73.0528 82.7555 73.1016 82.6513 73.1016H81.9866C81.8891 73.1016 81.8404 73.0528 81.8404 72.954V70.9275H79.5918V72.954C79.5918 73.0528 79.5377 73.1016 79.428 73.1016H78.7674C78.6713 73.1016 78.6239 73.0555 78.6239 72.9648V68.2741L78.6226 68.2728Z" fill="#0B0033"/>
<path d="M90.1645 69.4519C90.136 69.4519 90.109 69.4451 90.0846 69.4302C90.0602 69.4153 90.0318 69.3964 90.0007 69.372L89.9939 69.368C89.9519 69.326 89.8964 69.2786 89.8301 69.2272C89.7624 69.1757 89.688 69.1284 89.6054 69.0837C89.5228 69.039 89.4335 69.0011 89.3387 68.97C89.2439 68.9388 89.1465 68.9226 89.049 68.9226C88.9244 68.9226 88.8134 68.9361 88.7173 68.9646C88.6212 68.993 88.5413 69.0309 88.4764 69.0783C88.4114 69.127 88.3626 69.1825 88.3288 69.2475C88.295 69.3125 88.2787 69.3815 88.2787 69.4546C88.2787 69.5345 88.3044 69.6049 88.3545 69.6658C88.4046 69.7267 88.4723 69.7795 88.5589 69.8269C88.6442 69.8743 88.7444 69.9162 88.8554 69.9555C88.9678 69.9947 89.0842 70.0326 89.2074 70.0705C89.3482 70.1125 89.4876 70.1585 89.6257 70.2073C89.7638 70.256 89.8964 70.3115 90.0223 70.3724C90.1482 70.4334 90.266 70.5024 90.3757 70.5768C90.4853 70.6513 90.5801 70.7379 90.6586 70.8354C90.7371 70.9329 90.8007 71.0412 90.8468 71.1603C90.8928 71.2794 90.9158 71.4148 90.9158 71.5637C90.9158 71.8074 90.8671 72.0267 90.7682 72.2244C90.6694 72.4206 90.534 72.5885 90.3608 72.7279C90.1875 72.8674 89.9844 72.9743 89.7516 73.0501C89.5187 73.1246 89.2669 73.1625 88.9989 73.1625C88.827 73.1625 88.6564 73.1422 88.4858 73.1016C88.3153 73.061 88.1528 73.0041 87.9971 72.931C87.8401 72.8579 87.6925 72.7686 87.5531 72.6643C87.4137 72.5601 87.2891 72.4437 87.1795 72.3137V72.3178L87.1727 72.3042C87.124 72.2487 87.0996 72.1973 87.0996 72.1499C87.0996 72.1255 87.1064 72.1012 87.1199 72.0795C87.1334 72.0579 87.1538 72.0321 87.1808 72.0064L87.2918 71.8954C87.3257 71.867 87.3609 71.8345 87.3988 71.7979C87.4367 71.7627 87.4746 71.7302 87.5125 71.7005C87.5504 71.672 87.5856 71.6463 87.6181 71.6274C87.6506 71.6084 87.6763 71.5976 87.6966 71.5976C87.7277 71.5976 87.7575 71.607 87.7832 71.6274C87.809 71.6477 87.832 71.6666 87.8509 71.6842L87.8645 71.6977H87.8618C87.9403 71.7709 88.0269 71.8413 88.1244 71.9089C88.2219 71.9766 88.322 72.0362 88.4249 72.0876C88.5278 72.1404 88.6293 72.181 88.7309 72.2122C88.8324 72.242 88.9285 72.2568 89.0179 72.2568C89.141 72.2568 89.2561 72.2406 89.3631 72.2095C89.47 72.1783 89.5634 72.1337 89.6406 72.0768C89.7191 72.0199 89.78 71.9509 89.8247 71.871C89.8694 71.7912 89.891 71.7018 89.891 71.603C89.891 71.5042 89.8626 71.4202 89.8044 71.3498C89.7462 71.2795 89.6704 71.2185 89.577 71.1657C89.4835 71.1129 89.378 71.0683 89.2602 71.0304C89.1424 70.9925 89.0246 70.9573 88.9069 70.9234C88.6347 70.8408 88.3965 70.7515 88.1921 70.6554C87.9877 70.5593 87.8171 70.451 87.6817 70.3318C87.545 70.2127 87.4435 70.0787 87.3758 69.9298C87.3081 69.7809 87.2742 69.6143 87.2742 69.4289C87.2742 69.2218 87.3162 69.0322 87.4001 68.8603C87.4841 68.6897 87.6032 68.5435 87.7575 68.4217C87.9119 68.2999 88.0973 68.2051 88.3139 68.1374C88.5305 68.0697 88.7728 68.0359 89.0409 68.0359C89.2439 68.0359 89.4511 68.0684 89.6609 68.132C89.8707 68.1956 90.0657 68.2836 90.2443 68.3946C90.2985 68.4285 90.3527 68.4664 90.4082 68.5083C90.4637 68.5503 90.5151 68.5936 90.5625 68.6369C90.6099 68.6803 90.6478 68.7236 90.6775 68.7642C90.7073 68.8062 90.7222 68.8414 90.7222 68.8698C90.7222 68.8969 90.7155 68.9239 90.7019 68.9524C90.6884 68.9808 90.6721 69.0052 90.6518 69.0282L90.5517 69.1351V69.1311C90.5178 69.1663 90.484 69.2042 90.4474 69.2421C90.4109 69.28 90.3757 69.3138 90.3405 69.3436C90.3053 69.3734 90.2728 69.3991 90.243 69.4194C90.2132 69.4397 90.1888 69.4492 90.1699 69.4492L90.1645 69.4519Z" fill="#0B0033"/>
<path d="M92.1113 68.2727C92.1113 68.228 92.1262 68.1928 92.1546 68.1657C92.1831 68.1387 92.221 68.1251 92.2657 68.1251H95.7908C95.8314 68.1251 95.868 68.1373 95.8991 68.1617C95.9316 68.186 95.9505 68.2226 95.9546 68.2727V68.8589C95.9546 68.9035 95.9411 68.9428 95.9126 68.9766C95.8842 69.0105 95.8436 69.0267 95.7908 69.0267H94.5169V72.9471C94.5169 72.9878 94.5034 73.023 94.475 73.0541C94.4465 73.0852 94.4086 73.1015 94.3599 73.1015H93.6993C93.6587 73.1015 93.6221 73.0866 93.591 73.0582C93.5585 73.0297 93.5422 72.9918 93.5422 72.9471V69.0267H92.2657C92.221 69.0267 92.1844 69.0132 92.1546 68.9848C92.1262 68.9563 92.1113 68.9144 92.1113 68.8589V68.2727Z" fill="#0B0033"/>
<path d="M97.2109 70.6174C97.2109 70.3832 97.2407 70.1558 97.3016 69.9379C97.3626 69.7199 97.4478 69.5141 97.5602 69.3246C97.6726 69.1351 97.8052 68.9618 97.9609 68.8048C98.1166 68.6477 98.2885 68.5151 98.478 68.4041C98.6676 68.2931 98.872 68.2078 99.0899 68.1455C99.3079 68.0846 99.5353 68.0535 99.7722 68.0535C100.009 68.0535 100.232 68.0846 100.45 68.1455C100.668 68.2064 100.871 68.2931 101.062 68.4041C101.253 68.5151 101.425 68.6477 101.582 68.8048C101.739 68.9618 101.872 69.1337 101.983 69.3246C102.094 69.5155 102.179 69.7186 102.241 69.9379C102.302 70.1572 102.333 70.3846 102.333 70.6215C102.333 70.8584 102.302 71.0845 102.241 71.3011C102.181 71.5177 102.094 71.7208 101.983 71.9103C101.872 72.0998 101.739 72.2731 101.582 72.4274C101.426 72.5831 101.253 72.7158 101.062 72.8268C100.873 72.9378 100.668 73.023 100.45 73.0826C100.232 73.1435 100.005 73.1733 99.7681 73.1733C99.5312 73.1733 99.3038 73.1435 99.0859 73.0826C98.8679 73.0217 98.6635 72.9364 98.474 72.8241C98.2844 72.7117 98.1112 72.579 97.9569 72.4233C97.8012 72.2677 97.6685 72.0957 97.5575 71.9076C97.4465 71.7194 97.3612 71.515 97.3016 71.2984C97.2407 71.0804 97.2109 70.853 97.2109 70.6161V70.6174ZM98.1789 70.6107C98.1789 70.8367 98.2195 71.0479 98.3007 71.2442C98.3819 71.4405 98.4943 71.6111 98.6351 71.7573C98.7759 71.9035 98.9451 72.0172 99.1373 72.1025C99.3309 72.1878 99.5394 72.2298 99.7654 72.2298C99.9915 72.2298 100.197 72.1878 100.391 72.1025C100.584 72.0172 100.752 71.9022 100.894 71.7573C101.037 71.6125 101.149 71.4419 101.232 71.2442C101.313 71.0479 101.353 70.8367 101.353 70.6107C101.353 70.3846 101.313 70.1775 101.232 69.9812C101.15 69.7849 101.038 69.613 100.894 69.4668C100.751 69.3206 100.583 69.2055 100.391 69.1202C100.197 69.0349 99.9888 68.993 99.7654 68.993C99.5421 68.993 99.3309 69.0349 99.1373 69.1202C98.9437 69.2055 98.7759 69.3206 98.6351 69.4668C98.4929 69.613 98.3819 69.7849 98.3007 69.9812C98.2195 70.1775 98.1789 70.3873 98.1789 70.6107Z" fill="#0B0033"/>
<path d="M103.878 68.2822C103.878 68.1766 103.927 68.1251 104.025 68.1251H106.076C106.302 68.1251 106.514 68.1671 106.71 68.2524C106.906 68.3377 107.078 68.4527 107.224 68.5976C107.371 68.7424 107.486 68.913 107.57 69.1106C107.654 69.3069 107.695 69.5168 107.695 69.7374C107.695 69.8918 107.674 70.0393 107.632 70.1801C107.59 70.3209 107.53 70.4509 107.455 70.5727C107.379 70.6945 107.288 70.8028 107.184 70.8989C107.08 70.9951 106.963 71.0776 106.836 71.1453L107.708 72.8646C107.712 72.8876 107.72 72.9092 107.731 72.9309C107.742 72.9526 107.747 72.9769 107.747 73.0013C107.747 73.069 107.708 73.1015 107.629 73.1015H106.852C106.772 73.1015 106.718 73.0609 106.691 72.9769L105.88 71.3687C105.845 71.3687 105.806 71.3687 105.765 71.3701C105.723 71.3701 105.666 71.3714 105.594 71.3714H104.855V72.9566C104.855 73.0528 104.804 73.1001 104.701 73.1001H104.028C103.984 73.1001 103.948 73.0879 103.921 73.0649C103.894 73.0419 103.881 73.0054 103.881 72.9566V68.2822H103.878ZM106.702 69.7415C106.702 69.6454 106.684 69.5533 106.648 69.4626C106.612 69.3719 106.562 69.2921 106.497 69.2203C106.432 69.1486 106.355 69.0917 106.266 69.047C106.177 69.0024 106.079 68.9766 105.975 68.9699C105.896 68.9671 105.821 68.9658 105.745 68.9645C105.67 68.9645 105.592 68.9631 105.512 68.9631H104.851V70.5172H105.861C105.9 70.5172 105.942 70.5145 105.987 70.5104C106.093 70.5036 106.189 70.4793 106.277 70.4373C106.365 70.3954 106.441 70.3385 106.503 70.2681C106.565 70.1977 106.614 70.1178 106.649 70.0271C106.684 69.9364 106.7 69.8417 106.7 69.7415H106.702Z" fill="#0B0033"/>
<path d="M109.212 68.2727C109.212 68.2321 109.224 68.1982 109.248 68.1685C109.273 68.14 109.309 68.1251 109.358 68.1251H110.023C110.061 68.1251 110.096 68.1387 110.13 68.1657C110.164 68.1928 110.18 68.228 110.18 68.2727V72.9539C110.18 73.0527 110.127 73.1015 110.023 73.1015H109.358C109.261 73.1015 109.212 73.0527 109.212 72.9539V68.2727Z" fill="#0B0033"/>
<path d="M111.939 68.285C111.939 68.178 111.988 68.1239 112.087 68.1239H115.317C115.375 68.1239 115.416 68.1401 115.442 68.1726C115.466 68.2051 115.478 68.2457 115.478 68.2958V68.8874C115.478 68.928 115.465 68.9632 115.436 68.9943C115.408 69.0255 115.366 69.0417 115.31 69.0417H112.928V70.057H114.763C114.808 70.053 114.843 70.0624 114.87 70.0855C114.897 70.1085 114.911 70.1491 114.911 70.2046V70.8111C114.911 70.8517 114.9 70.8869 114.877 70.918C114.854 70.9491 114.819 70.9654 114.77 70.9654H112.928V72.181H115.397C115.459 72.181 115.501 72.1946 115.521 72.2216C115.542 72.2487 115.551 72.2893 115.551 72.3462V72.9581C115.551 73.0529 115.502 73.0989 115.404 73.0989H112.087C112.046 73.0989 112.013 73.088 111.983 73.065C111.953 73.042 111.939 73.0068 111.939 72.9581V68.2836V68.285Z" fill="#0B0033"/>
<path d="M119.853 69.4519C119.825 69.4519 119.798 69.4451 119.774 69.4302C119.749 69.4153 119.721 69.3964 119.69 69.372L119.683 69.368C119.641 69.326 119.585 69.2786 119.519 69.2272C119.451 69.1757 119.377 69.1284 119.294 69.0837C119.212 69.039 119.122 69.0011 119.028 68.97C118.933 68.9388 118.835 68.9226 118.738 68.9226C118.613 68.9226 118.502 68.9361 118.406 68.9646C118.31 68.993 118.23 69.0309 118.165 69.0783C118.1 69.127 118.052 69.1825 118.018 69.2475C117.984 69.3125 117.968 69.3815 117.968 69.4546C117.968 69.5345 117.993 69.6049 118.043 69.6658C118.094 69.7267 118.161 69.7795 118.248 69.8269C118.333 69.8743 118.433 69.9162 118.544 69.9555C118.657 69.9947 118.773 70.0326 118.896 70.0705C119.037 70.1125 119.177 70.1585 119.315 70.2073C119.453 70.256 119.585 70.3115 119.711 70.3724C119.837 70.4334 119.955 70.5024 120.065 70.5768C120.174 70.6513 120.269 70.7379 120.348 70.8354C120.426 70.9329 120.49 71.0412 120.536 71.1603C120.582 71.2794 120.605 71.4148 120.605 71.5637C120.605 71.8074 120.556 72.0267 120.457 72.2244C120.358 72.4206 120.223 72.5885 120.05 72.7279C119.876 72.8674 119.673 72.9743 119.441 73.0501C119.208 73.1246 118.956 73.1625 118.688 73.1625C118.516 73.1625 118.345 73.1422 118.175 73.1016C118.004 73.061 117.842 73.0041 117.686 72.931C117.529 72.8579 117.382 72.7686 117.242 72.6643C117.103 72.5601 116.978 72.4437 116.868 72.3137V72.3178L116.862 72.3042C116.813 72.2487 116.789 72.1973 116.789 72.1499C116.789 72.1255 116.795 72.1012 116.809 72.0795C116.822 72.0579 116.843 72.0321 116.87 72.0064L116.981 71.8954C117.015 71.867 117.05 71.8345 117.088 71.7979C117.126 71.7627 117.164 71.7302 117.201 71.7005C117.239 71.672 117.275 71.6463 117.307 71.6274C117.34 71.6084 117.365 71.5976 117.386 71.5976C117.417 71.5976 117.446 71.607 117.472 71.6274C117.498 71.6477 117.521 71.6666 117.54 71.6842L117.553 71.6977H117.551C117.629 71.7709 117.716 71.8413 117.813 71.9089C117.911 71.9766 118.011 72.0362 118.114 72.0876C118.217 72.1404 118.318 72.181 118.42 72.2122C118.521 72.242 118.617 72.2568 118.707 72.2568C118.83 72.2568 118.945 72.2406 119.052 72.2095C119.159 72.1783 119.252 72.1337 119.33 72.0768C119.408 72.0199 119.469 71.9509 119.514 71.871C119.558 71.7912 119.58 71.7018 119.58 71.603C119.58 71.5042 119.552 71.4202 119.493 71.3498C119.435 71.2795 119.359 71.2185 119.266 71.1657C119.173 71.1129 119.067 71.0683 118.949 71.0304C118.831 70.9925 118.714 70.9573 118.596 70.9234C118.324 70.8408 118.085 70.7515 117.881 70.6554C117.677 70.5593 117.506 70.451 117.371 70.3318C117.234 70.2127 117.132 70.0787 117.065 69.9298C116.997 69.7809 116.963 69.6143 116.963 69.4289C116.963 69.2218 117.005 69.0322 117.089 68.8603C117.173 68.6897 117.292 68.5435 117.446 68.4217C117.601 68.2999 117.786 68.2051 118.003 68.1374C118.219 68.0697 118.462 68.0359 118.73 68.0359C118.933 68.0359 119.14 68.0684 119.35 68.132C119.56 68.1956 119.755 68.2836 119.933 68.3946C119.987 68.4285 120.042 68.4664 120.097 68.5083C120.153 68.5503 120.204 68.5936 120.251 68.6369C120.299 68.6803 120.337 68.7236 120.367 68.7642C120.396 68.8062 120.411 68.8414 120.411 68.8698C120.411 68.8969 120.404 68.9239 120.391 68.9524C120.377 68.9808 120.361 69.0052 120.341 69.0282L120.241 69.1351V69.1311C120.207 69.1663 120.173 69.2042 120.136 69.2421C120.1 69.28 120.065 69.3138 120.029 69.3436C119.994 69.3734 119.962 69.3991 119.932 69.4194C119.902 69.4397 119.878 69.4492 119.859 69.4492L119.853 69.4519Z" fill="#0B0033"/>
</svg>
