<svg width="21" height="21" viewBox="0 0 21 21" fill="none" xmlns="http://www.w3.org/2000/svg">
<path id="Vector" d="M20.814 18.8903L14.8486 12.924C15.8099 11.6029 16.3271 10.0107 16.3255 8.37686C16.3255 4.10042 12.8462 0.621094 8.56973 0.621094C4.29329 0.621094 0.813965 4.10042 0.813965 8.37686C0.813965 12.6533 4.29329 16.1326 8.56973 16.1326C10.2036 16.1342 11.7958 15.6171 13.1168 14.6557L19.0832 20.6211L20.814 18.8903ZM8.56973 13.6831C7.52012 13.6832 6.49405 13.372 5.62129 12.789C4.74853 12.2059 4.06828 11.3771 3.66657 10.4074C3.26485 9.43771 3.15972 8.37066 3.36447 7.34121C3.56921 6.31176 4.07464 5.36615 4.81683 4.62396C5.55902 3.88177 6.50463 3.37634 7.53408 3.1716C8.56353 2.96685 9.63058 3.07198 10.6003 3.47369C11.57 3.87541 12.3988 4.55566 12.9818 5.42842C13.5649 6.30118 13.8761 7.32725 13.876 8.37686C13.8743 9.78366 13.3147 11.1324 12.32 12.1271C11.3252 13.1219 9.97653 13.6815 8.56973 13.6831Z" fill="white"/>
</svg>
