<svg width="30" height="32" viewBox="0 0 30 32" fill="none" xmlns="http://www.w3.org/2000/svg">
<path id="Vector" d="M27.9302 3.32038L7.58072 0.0346C6.92791 -0.070444 6.2562 0.0658929 5.71331 0.41363C5.17041 0.761366 4.80078 1.29203 4.6857 1.88892L0.037735 26.0323C-0.019114 26.328 -0.0116666 26.6312 0.0596518 26.9243C0.13097 27.2174 0.264761 27.4949 0.45338 27.7407C0.641999 27.9865 0.881748 28.196 1.15893 28.3571C1.4361 28.5181 1.74528 28.6277 2.06878 28.6795L22.4183 31.9653C22.7419 32.0174 23.0735 32.0108 23.3943 31.9457C23.715 31.8806 24.0186 31.7583 24.2876 31.5858C24.5567 31.4133 24.7859 31.194 24.9621 30.9404C25.1384 30.6869 25.2583 30.404 25.3149 30.1081L29.9628 5.96472C30.0767 5.3676 29.9265 4.75358 29.5454 4.25768C29.1642 3.76179 28.5832 3.42464 27.9302 3.32038ZM22.8495 29.7138L2.49842 26.428L7.14639 2.28465L27.4959 5.57043L22.8495 29.7138ZM8.95714 6.05901C9.01504 5.76068 9.20012 5.49558 9.4717 5.32198C9.74329 5.14839 10.0791 5.08051 10.4054 5.13328L23.3729 7.22617C23.6811 7.27554 23.9578 7.4288 24.1484 7.65569C24.339 7.88257 24.4296 8.16656 24.4023 8.45157C24.375 8.73658 24.2318 9.00186 24.001 9.19501C23.7702 9.38816 23.4686 9.49514 23.1557 9.49479C23.0824 9.4947 23.0092 9.48897 22.937 9.47765L9.96954 7.38332C9.64328 7.33038 9.35336 7.16114 9.16352 6.91281C8.97368 6.66448 8.89944 6.35737 8.95714 6.05901ZM8.09161 10.562C8.12009 10.4141 8.18016 10.2728 8.26837 10.1462C8.35657 10.0196 8.4712 9.91012 8.60569 9.82402C8.74019 9.73792 8.89192 9.6769 9.05221 9.64443C9.2125 9.61196 9.37822 9.60869 9.5399 9.6348L22.5073 11.7291C22.8177 11.7766 23.097 11.9293 23.2896 12.1569C23.4822 12.3844 23.5738 12.67 23.5462 12.9567C23.5186 13.2433 23.3738 13.5098 23.1406 13.7031C22.9075 13.8963 22.6033 14.0021 22.2886 13.9992C22.2147 13.9993 22.1409 13.9931 22.0683 13.9806L9.10088 11.8877C8.77487 11.8341 8.48546 11.6644 8.29622 11.4158C8.10698 11.1672 8.03338 10.8601 8.09161 10.562ZM7.22451 15.0635C7.28349 14.7659 7.46903 14.5019 7.74049 14.3292C8.01194 14.1565 8.34719 14.0892 8.6728 14.142L15.1534 15.1835C15.4614 15.2328 15.7381 15.386 15.9287 15.6127C16.1193 15.8394 16.21 16.1233 16.1829 16.4082C16.1558 16.6931 16.0129 16.9583 15.7824 17.1516C15.5519 17.3449 15.2505 17.4521 14.9378 17.4521C14.8645 17.4521 14.7913 17.4463 14.7191 17.435L8.23534 16.3878C7.90937 16.3345 7.61984 16.1651 7.43032 15.9168C7.24079 15.6686 7.16677 15.3616 7.22451 15.0635Z" fill="white"/>
</svg>
