<svg width="20" height="20" viewBox="0 0 20 20" fill="none" xmlns="http://www.w3.org/2000/svg">
<path id="Vector" d="M20 18.2692L14.0346 12.3029C14.996 10.9818 15.5131 9.38962 15.5115 7.75577C15.5115 3.47933 12.0322 0 7.75577 0C3.47933 0 0 3.47933 0 7.75577C0 12.0322 3.47933 15.5115 7.75577 15.5115C9.38962 15.5131 10.9818 14.996 12.3029 14.0346L18.2692 20L20 18.2692ZM7.75577 13.062C6.70616 13.0621 5.68009 12.7509 4.80733 12.1679C3.93457 11.5848 3.25431 10.756 2.8526 9.78631C2.45089 8.81661 2.34576 7.74956 2.5505 6.72011C2.75525 5.69066 3.26067 4.74505 4.00286 4.00286C4.74505 3.26067 5.69066 2.75525 6.72011 2.5505C7.74956 2.34576 8.81661 2.45089 9.78631 2.8526C10.756 3.25431 11.5848 3.93457 12.1679 4.80733C12.7509 5.68009 13.0621 6.70616 13.062 7.75577C13.0604 9.16257 12.5008 10.5113 11.506 11.506C10.5113 12.5008 9.16257 13.0604 7.75577 13.062Z" fill="#FF7000"/>
</svg>
