<svg width="25" height="30" viewBox="0 0 25 30" fill="none" xmlns="http://www.w3.org/2000/svg">
<g id="Group">
<path id="Vector (Stroke)" fill-rule="evenodd" clip-rule="evenodd" d="M12.4999 2.72727C10.5507 2.72727 8.9705 4.25357 8.9705 6.13636V15C8.9705 16.8828 10.5507 18.4091 12.4999 18.4091C14.4492 18.4091 16.0293 16.8828 16.0293 15V6.13636C16.0293 4.25357 14.4492 2.72727 12.4999 2.72727ZM6.14697 6.13636C6.14697 2.74734 8.99128 0 12.4999 0C16.0085 0 18.8529 2.74734 18.8529 6.13636V15C18.8529 18.389 16.0085 21.1364 12.4999 21.1364C8.99128 21.1364 6.14697 18.389 6.14697 15V6.13636Z" fill="white"/>
<path id="Vector (Stroke)_2" fill-rule="evenodd" clip-rule="evenodd" d="M1.91176 12.9545C2.69146 12.9545 3.32353 13.565 3.32353 14.3182C3.32353 19.2132 7.43217 23.1818 12.5 23.1818C17.5678 23.1818 21.6765 19.2132 21.6765 14.3182C21.6765 13.565 22.3085 12.9545 23.0882 12.9545C23.8679 12.9545 24.5 13.565 24.5 14.3182C24.5 20.2581 19.8737 25.1548 13.9118 25.8297V28.6363C13.9118 29.3895 13.2797 30 12.5 30C11.7203 30 11.0882 29.3895 11.0882 28.6363V25.8297C5.12626 25.1548 0.5 20.2581 0.5 14.3182C0.5 13.565 1.13207 12.9545 1.91176 12.9545Z" fill="white"/>
</g>
</svg>
